<?xml version="1.0" encoding="UTF-8"?>
<svg xmlns="http://www.w3.org/2000/svg" xmlns:xlink="http://www.w3.org/1999/xlink" width="802pt" height="208pt" viewBox="0 0 802 208" version="1.1">
<g id="surface1">
<path style=" stroke:none;fill-rule:nonzero;fill:rgb(5.882353%,89.411765%,14.117647%);fill-opacity:1;" d="M 717.808594 14.855469 L 738.855469 14.855469 L 744.558594 29.714844 L 754.203125 54.972656 L 760.78125 72.058594 L 770.429688 97.3125 L 777.007812 114.398438 L 778.761719 118.855469 L 779.199219 17.828125 L 780.953125 14.855469 L 800.683594 14.855469 L 802 17.828125 L 802 191.65625 L 800.683594 193.886719 L 779.199219 193.886719 L 773.9375 179.769531 L 766.042969 159.714844 L 761.660156 147.828125 L 757.273438 136.6875 L 752.449219 124.058594 L 741.050781 94.34375 L 739.296875 89.886719 L 738.855469 191.65625 L 737.542969 193.886719 L 720.003906 194.628906 L 717.371094 193.144531 L 716.496094 191.65625 L 716.054688 148.570312 L 716.054688 42.34375 L 716.496094 17.085938 Z M 717.808594 14.855469 "/>
<path style=" stroke:none;fill-rule:nonzero;fill:rgb(5.882353%,89.411765%,14.117647%);fill-opacity:1;" d="M 57.003906 0 L 67.527344 0 L 76.296875 2.230469 L 85.066406 6.6875 L 92.523438 12.628906 L 99.097656 20.058594 L 103.921875 26.742188 L 110.0625 37.144531 L 114.445312 47.542969 L 118.390625 59.429688 L 121.460938 72.058594 L 123.214844 83.941406 L 124.09375 93.601562 L 124.09375 116.628906 L 122.777344 130 L 119.707031 145.601562 L 115.324219 159.714844 L 111.375 169.371094 L 107.429688 177.542969 L 106.113281 179.769531 L 104.359375 178.285156 L 101.730469 171.601562 L 95.152344 152.285156 L 92.082031 143.371094 L 92.523438 140.398438 L 96.46875 127.769531 L 98.222656 116.628906 L 98.660156 112.171875 L 98.660156 98.058594 L 97.34375 86.914062 L 94.714844 75.769531 L 91.644531 67.601562 L 87.699219 60.171875 L 83.75 54.230469 L 76.734375 47.542969 L 69.71875 43.828125 L 67.527344 43.085938 L 56.566406 43.085938 L 49.550781 46.058594 L 42.535156 52 L 37.710938 57.941406 L 33.324219 65.371094 L 29.816406 75.027344 L 26.746094 86.914062 L 25.433594 98.800781 L 25.433594 110.6875 L 26.746094 121.828125 L 28.941406 132.230469 L 32.011719 141.144531 L 31.570312 144.855469 L 27.1875 158.230469 L 22.363281 172.34375 L 19.292969 179.769531 L 17.539062 178.285156 L 14.46875 173.085938 L 9.207031 160.457031 L 4.824219 146.34375 L 1.753906 130.742188 L 0.4375 119.601562 L 0 113.65625 L 0 95.085938 L 1.316406 81.714844 L 3.945312 66.855469 L 7.453125 54.230469 L 11.402344 43.828125 L 14.910156 36.398438 L 18.855469 28.972656 L 24.554688 20.800781 L 31.132812 13.371094 L 39.464844 6.6875 L 48.234375 2.230469 Z M 57.003906 0 "/>
<path style=" stroke:none;fill-rule:nonzero;fill:rgb(5.882353%,89.411765%,14.117647%);fill-opacity:1;" d="M 458.660156 14.855469 L 513.910156 14.855469 L 516.105469 17.828125 L 516.105469 49.769531 L 514.351562 52.742188 L 467.429688 53.484375 L 465.675781 55.714844 L 465.675781 78 L 467.871094 80.230469 L 503.824219 80.972656 L 508.210938 83.199219 L 512.597656 87.65625 L 515.664062 92.855469 L 518.296875 101.027344 L 519.171875 105.484375 L 519.613281 110.6875 L 519.613281 164.171875 L 518.296875 174.570312 L 516.105469 181.257812 L 512.597656 187.941406 L 508.210938 192.398438 L 505.582031 193.886719 L 499.441406 194.628906 L 447.699219 194.628906 L 445.066406 193.144531 L 444.191406 190.914062 L 443.753906 179.769531 L 444.191406 159.714844 L 445.507812 156.742188 L 494.179688 156 L 495.933594 153.769531 L 495.933594 125.542969 L 494.617188 123.3125 L 493.300781 122.570312 L 456.03125 121.828125 L 450.769531 118.113281 L 447.261719 112.914062 L 444.628906 106.230469 L 442.875 98.800781 L 442.4375 95.828125 L 442.4375 42.34375 L 443.753906 34.171875 L 446.382812 26.742188 L 450.332031 20.058594 L 454.714844 16.34375 Z M 458.660156 14.855469 "/>
<path style=" stroke:none;fill-rule:nonzero;fill:rgb(5.882353%,89.411765%,14.117647%);fill-opacity:1;" d="M 367.015625 14.855469 L 427.527344 14.855469 L 429.722656 17.828125 L 429.722656 49.769531 L 428.40625 52.742188 L 381.046875 52.742188 L 381.046875 86.171875 L 418.757812 86.171875 L 420.074219 88.398438 L 420.074219 121.085938 L 418.757812 123.3125 L 381.046875 123.3125 L 381.046875 156.742188 L 427.96875 156.742188 L 429.722656 158.972656 L 429.722656 191.65625 L 428.40625 193.886719 L 362.195312 194.628906 L 359.125 193.144531 L 357.808594 189.429688 L 357.808594 19.3125 L 359.5625 15.601562 Z M 367.015625 14.855469 "/>
<path style=" stroke:none;fill-rule:nonzero;fill:rgb(5.882353%,89.411765%,14.117647%);fill-opacity:1;" d="M 648.089844 14.855469 L 670.015625 14.855469 L 672.207031 23.769531 L 681.851562 70.570312 L 696.761719 141.886719 L 705.09375 182 L 706.410156 187.941406 L 705.96875 191.65625 L 705.09375 193.886719 L 681.851562 193.886719 L 675.714844 163.429688 L 674.835938 160.457031 L 641.074219 161.199219 L 634.496094 193.886719 L 613.011719 193.886719 L 611.695312 190.171875 L 613.011719 182 L 620.464844 146.34375 L 628.796875 106.230469 L 636.25 70.570312 L 644.582031 30.457031 Z M 657.738281 75.769531 L 655.984375 83.199219 L 648.089844 123.3125 L 648.527344 125.542969 L 667.820312 125.542969 L 667.382812 120.34375 L 659.050781 78.742188 Z M 657.738281 75.769531 "/>
<path style=" stroke:none;fill-rule:nonzero;fill:rgb(5.882353%,89.411765%,14.117647%);fill-opacity:1;" d="M 204.773438 14.855469 L 226.699219 14.855469 L 228.890625 23.769531 L 236.347656 60.171875 L 244.679688 99.542969 L 251.695312 133.714844 L 259.148438 169.371094 L 263.09375 187.941406 L 262.65625 191.65625 L 261.777344 193.886719 L 238.976562 194.628906 L 237.222656 187.941406 L 231.960938 161.199219 L 197.320312 160.457031 L 196.882812 164.914062 L 191.183594 193.886719 L 169.695312 193.886719 L 168.378906 190.171875 L 169.695312 182 L 178.027344 141.886719 L 185.480469 106.230469 L 193.8125 66.113281 L 201.265625 30.457031 L 204.335938 16.34375 Z M 214.421875 75.769531 L 211.351562 89.886719 L 204.773438 123.3125 L 204.773438 125.542969 L 224.507812 125.542969 L 224.070312 120.34375 L 215.300781 76.515625 Z M 214.421875 75.769531 "/>
<path style=" stroke:none;fill-rule:nonzero;fill:rgb(5.882353%,89.411765%,14.117647%);fill-opacity:1;" d="M 254.761719 14.855469 L 277.566406 14.855469 L 279.757812 23.769531 L 287.648438 63.144531 L 294.226562 95.085938 L 301.683594 131.484375 L 301.683594 133.714844 L 302.558594 133.714844 L 302.996094 128.515625 L 325.359375 14.855469 L 346.40625 14.855469 L 348.160156 18.570312 L 347.285156 25.257812 L 337.199219 75.027344 L 330.621094 106.972656 L 322.289062 147.828125 L 314.398438 186.457031 L 312.644531 193.886719 L 290.71875 194.628906 L 289.402344 190.914062 L 268.796875 94.34375 L 260.902344 57.199219 L 253.449219 22.285156 L 253.449219 17.828125 Z M 254.761719 14.855469 "/>
<path style=" stroke:none;fill-rule:nonzero;fill:rgb(5.882353%,89.411765%,14.117647%);fill-opacity:1;" d="M 552.058594 14.855469 L 601.609375 14.855469 L 603.800781 17.085938 L 604.242188 18.570312 L 604.242188 49.027344 L 602.488281 52.742188 L 560.390625 53.484375 L 558.636719 56.457031 L 558.636719 153.769531 L 559.953125 156 L 602.488281 156.742188 L 604.242188 160.457031 L 604.242188 190.914062 L 602.488281 193.886719 L 548.992188 193.886719 L 542.851562 188.6875 L 538.90625 182 L 536.273438 173.085938 L 535.398438 167.144531 L 535.398438 42.34375 L 537.152344 32.6875 L 539.78125 26 L 543.289062 20.058594 L 547.675781 16.34375 Z M 552.058594 14.855469 "/>
<path style=" stroke:none;fill-rule:nonzero;fill:rgb(5.490196%,89.019608%,13.72549%);fill-opacity:1;" d="M 61.828125 75.027344 L 62.703125 75.027344 L 69.28125 95.085938 L 74.980469 111.429688 L 81.558594 130.742188 L 89.011719 152.285156 L 95.589844 171.601562 L 100.414062 185.714844 L 99.976562 188.6875 L 95.589844 193.886719 L 87.257812 201.3125 L 76.296875 208 L 74.980469 207.257812 L 62.703125 170.855469 L 61.828125 170.855469 L 55.6875 188.6875 L 50.425781 204.285156 L 49.109375 208 L 44.289062 205.769531 L 37.273438 201.3125 L 30.257812 195.371094 L 25.433594 190.171875 L 23.679688 187.941406 L 24.554688 184.230469 L 30.257812 167.144531 L 36.394531 149.3125 L 49.550781 110.6875 L 56.566406 90.628906 Z M 61.828125 75.027344 "/>
<path style=" stroke:none;fill-rule:nonzero;fill:rgb(1.176471%,22.352941%,7.843137%);fill-opacity:1;" d="M 57.003906 0 L 67.527344 0 L 76.296875 2.230469 L 85.066406 6.6875 L 92.523438 12.628906 L 99.097656 20.058594 L 103.921875 26.742188 L 110.0625 37.144531 L 114.445312 47.542969 L 118.390625 59.429688 L 121.460938 72.058594 L 123.214844 83.941406 L 124.09375 93.601562 L 124.09375 116.628906 L 122.777344 130 L 119.707031 145.601562 L 115.324219 159.714844 L 111.375 169.371094 L 107.429688 177.542969 L 106.113281 179.769531 L 104.359375 178.285156 L 105.238281 175.3125 L 108.746094 168.628906 L 112.691406 158.972656 L 116.199219 148.570312 L 118.832031 137.429688 L 121.023438 123.3125 L 121.902344 111.429688 L 121.902344 97.3125 L 120.148438 79.484375 L 117.953125 67.601562 L 114.007812 53.484375 L 110.5 44.570312 L 105.675781 34.914062 L 102.605469 29.714844 L 95.152344 20.058594 L 87.257812 12.628906 L 78.929688 7.429688 L 71.472656 4.457031 L 67.964844 3.714844 L 56.125 3.714844 L 48.671875 5.941406 L 38.148438 11.886719 L 29.816406 19.3125 L 24.554688 26 L 20.171875 32.6875 L 15.347656 40.855469 L 10.960938 52 L 6.578125 66.113281 L 4.386719 77.257812 L 2.632812 92.113281 L 2.191406 98.058594 L 2.191406 110.6875 L 3.945312 130 L 6.578125 143.371094 L 10.085938 155.257812 L 13.15625 163.429688 L 16.664062 170.855469 L 19.730469 176.800781 L 19.292969 179.769531 L 17.539062 178.285156 L 14.46875 173.085938 L 9.207031 160.457031 L 4.824219 146.34375 L 1.753906 130.742188 L 0.4375 119.601562 L 0 113.65625 L 0 95.085938 L 1.316406 81.714844 L 3.945312 66.855469 L 7.453125 54.230469 L 11.402344 43.828125 L 14.910156 36.398438 L 18.855469 28.972656 L 24.554688 20.800781 L 31.132812 13.371094 L 39.464844 6.6875 L 48.234375 2.230469 Z M 57.003906 0 "/>
<path style=" stroke:none;fill-rule:nonzero;fill:rgb(1.176471%,22.352941%,7.843137%);fill-opacity:1;" d="M 24.554688 184.230469 L 28.5 188.6875 L 34.640625 194.628906 L 39.464844 198.34375 L 46.917969 202.800781 L 49.550781 202.800781 L 53.933594 190.914062 L 54.371094 192.398438 L 49.109375 208 L 44.289062 205.769531 L 37.273438 201.3125 L 30.257812 195.371094 L 25.433594 190.171875 L 23.679688 187.941406 Z M 24.554688 184.230469 "/>
<path style=" stroke:none;fill-rule:nonzero;fill:rgb(1.176471%,21.960784%,7.843137%);fill-opacity:1;" d="M 99.097656 183.484375 L 100.414062 185.714844 L 99.976562 188.6875 L 95.589844 193.886719 L 87.257812 201.3125 L 76.296875 208 L 74.980469 207.257812 L 72.789062 200.570312 L 73.226562 199.085938 L 74.542969 202.800781 L 77.613281 202.800781 L 85.503906 198.34375 L 94.714844 190.171875 L 98.222656 185.714844 L 99.097656 185.714844 Z M 99.097656 183.484375 "/>
</g>
</svg>
