<svg xmlns="http://www.w3.org/2000/svg" viewBox="0 0 802 208">
  <path d="M717.809 14.855h21.046l5.704 14.86 9.644 25.258 6.578 17.086 9.649 25.254 6.578 17.085 1.754 4.457.437-101.027 1.754-2.973h19.73L802 17.828v173.828l-1.316 2.23h-21.485l-5.261-14.116-7.895-20.055-4.383-11.887-4.387-11.14-4.824-12.63-11.398-29.714-1.754-4.457-.442 101.77-1.312 2.23-17.54.742-2.632-1.484-.875-1.489-.441-43.086V42.344l.441-25.258ZM57.004 0h10.523l8.77 2.23 8.77 4.458 7.456 5.94 6.575 7.43 4.824 6.684 6.14 10.403 4.383 10.398 3.946 11.887 3.07 12.629 1.754 11.882.879 9.66v23.028L122.777 130l-3.07 15.602-4.383 14.113-3.949 9.656-3.945 8.172-1.317 2.227-1.754-1.485-2.629-6.683-6.578-19.317-3.07-8.914.441-2.973 3.946-12.628 1.754-11.141.437-4.457V98.059l-1.316-11.145-2.63-11.144-3.07-8.168-3.945-7.43-3.949-5.942-7.016-6.687-7.015-3.715-2.192-.742h-10.96l-7.016 2.973L42.535 52l-4.824 5.941-4.387 7.43-3.508 9.656-3.07 11.887-1.312 11.887v11.886l1.312 11.141 2.195 10.402 3.07 8.915-.44 3.71-4.384 13.375-4.824 14.114-3.07 7.426-1.754-1.485-3.07-5.2-5.262-12.628-4.383-14.113-3.07-15.602-1.317-11.14L0 113.656v-18.57l1.316-13.371 2.63-14.86L7.452 54.23l3.95-10.402 3.507-7.43 3.945-7.425 5.7-8.172 6.578-7.43 8.332-6.684 8.77-4.457ZM458.66 14.855h55.25l2.195 2.973V49.77l-1.753 2.972-46.922.742-1.754 2.23V78l2.195 2.23 35.953.743 4.387 2.226 4.387 4.457 3.066 5.2 2.633 8.171.875 4.457.441 5.204v53.484l-1.316 10.398-2.192 6.688-3.507 6.683-4.387 4.457-2.629 1.489-6.14.742h-51.743l-2.633-1.484-.875-2.23-.437-11.145.437-20.055 1.317-2.973L494.18 156l1.754-2.23v-28.227l-1.317-2.23-1.316-.743-37.27-.742-5.261-3.715-3.508-5.199-2.633-6.684-1.754-7.43-.438-2.972V42.344l1.317-8.172 2.629-7.43 3.949-6.683 4.383-3.715Zm-91.644 0h60.511l2.196 2.973V49.77l-1.317 2.972h-47.36v33.43h37.712l1.316 2.226v32.688l-1.316 2.227h-37.711v33.43h46.922l1.754 2.23v32.683l-1.317 2.23-66.21.743-3.071-1.484-1.316-3.715V19.312l1.753-3.71Zm281.074 0h21.926l2.191 8.915 9.645 46.8 14.91 71.317L705.094 182l1.316 5.941-.441 3.715-.875 2.23h-23.242l-6.137-30.456-.88-2.973-33.76.742-6.579 32.688h-21.484l-1.317-3.715 1.317-8.172 7.453-35.656 8.332-40.114 7.453-35.66 8.332-40.113Zm9.648 60.915-1.754 7.43-7.894 40.112.437 2.231h19.293l-.437-5.2-8.332-41.6ZM204.773 14.855H226.7l2.192 8.915 7.457 36.402 8.332 39.371 7.015 34.172 7.453 35.656 3.946 18.57-.438 3.715-.879 2.23-22.8.743-1.754-6.688-5.262-26.742-34.64-.742-.438 4.457-5.7 28.973h-21.488l-1.316-3.715 1.316-8.172 8.332-40.113 7.453-35.657 8.333-40.117 7.453-35.656 3.07-14.113Zm9.649 60.915-3.07 14.117-6.579 33.425v2.231h19.735l-.438-5.2-8.77-43.827Zm40.34-60.915h22.804l2.192 8.915 7.89 39.375 6.579 31.94 7.457 36.4v2.23h.875l.437-5.2 22.363-113.66h21.047l1.754 3.715-.875 6.688-10.086 49.77-6.578 31.945-8.332 40.855-7.89 38.629-1.754 7.43-21.926.742-1.317-3.715-20.605-96.57-7.895-37.145-7.453-34.914v-4.457Zm297.297 0h49.55l2.192 2.23.441 1.485v30.457l-1.754 3.715-42.097.742-1.754 2.973v97.313l1.316 2.23 42.535.742 1.754 3.715v30.457l-1.754 2.973h-53.496l-6.14-5.2-3.946-6.687-2.633-8.914-.875-5.941V42.344l1.754-9.657 2.63-6.687 3.507-5.941 4.387-3.715Zm0 0" style="stroke:none;fill-rule:nonzero;fill:#0fe424;fill-opacity:1"/>
  <path d="M61.828 75.027h.875l6.578 20.059 5.7 16.344 6.578 19.312 7.453 21.543 6.578 19.317 4.824 14.113-.437 2.972-4.387 5.2-8.332 7.425L76.297 208l-1.317-.742-12.277-36.403h-.875l-6.14 17.833-5.262 15.597L49.109 208l-4.82-2.23-7.016-4.458-7.015-5.94-4.824-5.2-1.754-2.23.875-3.712 5.703-17.085 6.137-17.833 13.156-38.625 7.015-20.058Zm0 0" style="stroke:none;fill-rule:nonzero;fill:#0ee323;fill-opacity:1"/>
  <path d="M57.004 0h10.523l8.77 2.23 8.77 4.458 7.456 5.94 6.575 7.43 4.824 6.684 6.14 10.403 4.383 10.398 3.946 11.887 3.07 12.629 1.754 11.882.879 9.66v23.028L122.777 130l-3.07 15.602-4.383 14.113-3.949 9.656-3.945 8.172-1.317 2.227-1.754-1.485.88-2.972 3.507-6.684 3.945-9.656 3.508-10.403 2.633-11.14 2.191-14.118.88-11.882V97.312l-1.755-17.828-2.195-11.882-3.945-14.118-3.508-8.914-4.824-9.656-3.07-5.2-7.454-9.655-7.894-7.43-8.328-5.2-7.457-2.972-3.508-.742h-11.84L48.672 5.94l-10.524 5.946-8.332 7.425L24.555 26l-4.383 6.688-4.824 8.167L10.96 52 6.578 66.113 4.387 77.258 2.633 92.113 2.19 98.06v12.629L3.945 130l2.633 13.371 3.508 11.887 3.07 8.172 3.508 7.425 3.066 5.946-.437 2.969-1.754-1.485-3.07-5.2-5.262-12.628-4.383-14.113-3.07-15.602-1.317-11.14L0 113.656v-18.57l1.316-13.371 2.63-14.86L7.452 54.23l3.95-10.402 3.507-7.43 3.945-7.425 5.7-8.172 6.578-7.43 8.332-6.684 8.77-4.457ZM24.555 184.23l3.945 4.458 6.14 5.94 4.825 3.716 7.453 4.457h2.633l4.383-11.887.437 1.484L49.11 208l-4.82-2.23-7.016-4.458-7.015-5.94-4.824-5.2-1.754-2.23Zm0 0" style="stroke:none;fill-rule:nonzero;fill:#033914;fill-opacity:1"/>
  <path d="m99.098 183.484 1.316 2.23-.437 2.974-4.387 5.199-8.332 7.425L76.297 208l-1.317-.742-2.19-6.688.437-1.484 1.316 3.715h3.07l7.89-4.457 9.212-8.172 3.508-4.457h.875Zm0 0" style="stroke:none;fill-rule:nonzero;fill:#033814;fill-opacity:1"/>
</svg>
