<svg xmlns="http://www.w3.org/2000/svg" fill="none" viewBox="0 0 103 25">
  <g clip-path="url(#etherlink-dark_svg__a)">
    <path fill="url(#etherlink-dark_svg__b)" d="M12.05.44c-6.628 0-12 5.373-12 12s5.373 12 12 12 12-5.373 12-12-5.373-12-12-12Zm0 21.876c-5.454 0-9.876-4.422-9.876-9.876s4.422-9.876 9.876-9.876 9.876 4.422 9.876 9.876-4.422 9.876-9.876 9.876Z"/>
    <path fill="url(#etherlink-dark_svg__c)" d="M11.984 5.841c-3.63.036-6.574 3.044-6.533 6.675.01.928.213 1.81.57 2.61.053.12.211.146.302.052l1.455-1.501a.411.411 0 0 0 .106-.37 4.254 4.254 0 0 1 4.871-5.062.472.472 0 0 0 .42-.135l1.446-1.493a.173.173 0 0 0-.057-.28 6.588 6.588 0 0 0-2.58-.495Z"/>
    <path fill="url(#etherlink-dark_svg__d)" d="M12.115 19.047c3.631-.036 6.574-3.044 6.533-6.675a6.559 6.559 0 0 0-.57-2.61.186.186 0 0 0-.302-.052l-1.455 1.502a.411.411 0 0 0-.106.37 4.254 4.254 0 0 1-4.871 5.062.472.472 0 0 0-.419.134l-1.447 1.493a.173.173 0 0 0 .058.28 6.59 6.59 0 0 0 2.58.495v.001Z"/>
    <path fill="url(#etherlink-dark_svg__e)" d="m8.65 13.744-2.77 2.772a1.44 1.44 0 1 0 2.036 2.037l2.771-2.772a1.44 1.44 0 0 0-2.037-2.037Z"/>
    <path fill="url(#etherlink-dark_svg__f)" d="M16.124 6.288 13.353 9.06a1.44 1.44 0 0 0 2.036 2.036l2.772-2.771a1.44 1.44 0 0 0-2.037-2.037Z"/>
    <path fill="#fff" d="M31.71 18.704V6.406h8v1.868h-5.771v3.338h5.356v1.868H33.94v3.357h5.819v1.867H31.71ZM46.495 9.48v1.682h-5.303V9.48h5.303Zm-3.993-2.21h2.174v8.66c0 .292.044.515.135.67.09.153.209.258.357.315.148.056.312.084.492.084.137 0 .261-.01.376-.03.114-.02.2-.038.26-.054l.367 1.699a4.115 4.115 0 0 1-1.279.216 3.512 3.512 0 0 1-1.47-.25 2.251 2.251 0 0 1-1.037-.85c-.254-.384-.38-.865-.375-1.441v-9.02.001Zm7.986 6.03v5.403h-2.174V6.405h2.126v4.642h.108c.216-.52.551-.931 1.005-1.234.455-.302 1.034-.454 1.739-.454.64 0 1.199.135 1.675.403.477.268.846.66 1.109 1.177.262.516.393 1.147.393 1.892v5.872h-2.174v-5.536c0-.62-.16-1.104-.477-1.45-.318-.347-.764-.52-1.336-.52-.385 0-.728.083-1.03.25a1.762 1.762 0 0 0-.71.717c-.17.312-.254.69-.254 1.135Zm12.274 5.584c-.924 0-1.722-.193-2.393-.58a3.875 3.875 0 0 1-1.546-1.645c-.36-.711-.54-1.548-.54-2.513 0-.965.18-1.783.542-2.501a4.09 4.09 0 0 1 1.522-1.682c.653-.402 1.42-.603 2.3-.603.569 0 1.106.09 1.613.273.506.183.954.463 1.345.844.39.38.697.864.922 1.45.224.587.336 1.285.336 2.093v.667h-7.56v-1.465h5.476a2.357 2.357 0 0 0-.27-1.114 1.977 1.977 0 0 0-.735-.772 2.092 2.092 0 0 0-1.096-.282 2.13 2.13 0 0 0-1.171.321 2.242 2.242 0 0 0-.784.841 2.414 2.414 0 0 0-.285 1.138v1.28c0 .536.098.995.294 1.377.196.383.47.675.823.877.352.202.764.303 1.236.303.317 0 .603-.045.86-.135.255-.09.478-.223.666-.4a1.66 1.66 0 0 0 .426-.654l2.03.229a3.156 3.156 0 0 1-.73 1.402 3.55 3.55 0 0 1-1.372.925c-.557.218-1.194.327-1.91.327l.001-.001Zm5.938-.18V9.48h2.108v1.538h.096c.168-.533.458-.944.868-1.234.41-.29.88-.435 1.408-.435.12 0 .255.005.405.014.15.01.276.025.376.045v2a2.42 2.42 0 0 0-.435-.088 4.362 4.362 0 0 0-.573-.039c-.396 0-.752.085-1.066.256-.314.17-.562.405-.742.705-.18.3-.27.647-.27 1.04v5.422h-2.174Zm8.882-12.299v12.298h-2.174V6.405h2.174Zm3.327 1.766c-.345 0-.64-.116-.89-.348a1.104 1.104 0 0 1-.371-.835c0-.324.124-.601.372-.831.248-.23.544-.346.889-.346.344 0 .645.116.891.348.247.232.37.51.37.835 0 .324-.123.601-.37.832-.246.23-.543.345-.891.345Zm-1.093 10.533V9.48h2.174v9.224h-2.174Zm6.581-5.404v5.404h-2.174V9.48h2.078v1.567h.108a2.634 2.634 0 0 1 1.018-1.23c.466-.305 1.044-.457 1.732-.457.637 0 1.192.136 1.667.408.474.273.843.667 1.105 1.183s.392 1.143.387 1.88v5.873h-2.174v-5.537c0-.617-.16-1.1-.477-1.447-.318-.349-.758-.523-1.318-.523-.38 0-.718.083-1.012.25a1.742 1.742 0 0 0-.69.717c-.167.312-.25.69-.25 1.135Zm8.137 5.404V6.406h2.174v12.298h-2.174Zm1.982-2.894-.006-2.625h.348l3.315-3.705h2.54l-4.078 4.54h-.45l-1.67 1.79Zm3.807 2.894-3.003-4.197 1.465-1.532 4.138 5.73h-2.6Z"/>
  </g>
  <defs>
    <linearGradient id="etherlink-dark_svg__b" x1=".05" x2="33.553" y1="12.44" y2="12.44" gradientUnits="userSpaceOnUse">
      <stop stop-color="#38FF9C"/>
      <stop offset="1" stop-color="#171717"/>
    </linearGradient>
    <linearGradient id="etherlink-dark_svg__c" x1="5.451" x2="18.055" y1="10.537" y2="10.537" gradientUnits="userSpaceOnUse">
      <stop stop-color="#38FF9C"/>
      <stop offset="1" stop-color="#171717"/>
    </linearGradient>
    <linearGradient id="etherlink-dark_svg__d" x1="9.429" x2="21.965" y1="14.351" y2="14.351" gradientUnits="userSpaceOnUse">
      <stop stop-color="#38FF9C"/>
      <stop offset="1" stop-color="#171717"/>
    </linearGradient>
    <linearGradient id="etherlink-dark_svg__e" x1="5.457" x2="14.963" y1="16.149" y2="16.149" gradientUnits="userSpaceOnUse">
      <stop stop-color="#38FF9C"/>
      <stop offset="1" stop-color="#171717"/>
    </linearGradient>
    <linearGradient id="etherlink-dark_svg__f" x1="12.931" x2="21.701" y1="8.692" y2="8.692" gradientUnits="userSpaceOnUse">
      <stop stop-color="#38FF9C"/>
      <stop offset="1" stop-color="#171717"/>
    </linearGradient>
    <clipPath id="etherlink-dark_svg__a">
      <path fill="#fff" d="M0 0h103v25H0z"/>
    </clipPath>
  </defs>
</svg>
