<?xml version="1.0" encoding="UTF-8"?>
<svg xmlns="http://www.w3.org/2000/svg" xmlns:xlink="http://www.w3.org/1999/xlink" width="36px" height="36px" viewBox="0 0 36 36" version="1.1">
<g id="surface1">
<path style=" stroke:none;fill-rule:nonzero;fill:rgb(14.509804%,90.980392%,10.196078%);fill-opacity:1;" d="M 17.367188 4.796875 L 18.40625 4.796875 L 18.949219 4.835938 L 19.914062 4.957031 L 20.476562 5.0625 L 21.007812 5.1875 L 21.761719 5.414062 L 22.304688 5.609375 L 22.816406 5.820312 L 23.289062 6.046875 L 23.625 6.222656 L 24.011719 6.433594 L 24.414062 6.679688 L 24.90625 7.015625 L 25.242188 7.257812 L 25.523438 7.488281 L 25.699219 7.628906 L 25.945312 7.839844 L 26.15625 8.03125 L 26.296875 8.15625 L 26.859375 8.71875 L 27.140625 9.035156 L 27.335938 9.28125 L 27.527344 9.507812 L 27.738281 9.789062 L 28.039062 10.230469 L 28.28125 10.617188 L 28.492188 10.984375 L 28.703125 11.375 L 28.898438 11.742188 L 29.09375 12.164062 L 29.355469 12.8125 L 29.546875 13.394531 L 29.726562 14.046875 L 29.867188 14.75 L 29.96875 15.433594 L 30.039062 16.03125 L 30.078125 16.507812 L 30.078125 17.59375 L 30.023438 18.195312 L 29.9375 18.878906 L 29.796875 19.652344 L 29.65625 20.25 L 29.496094 20.757812 L 29.304688 21.320312 L 29.144531 21.710938 L 28.953125 22.132812 L 28.8125 22.414062 L 28.617188 22.78125 L 28.371094 23.203125 L 28.070312 23.695312 L 27.789062 24.117188 L 27.597656 24.382812 L 27.421875 24.609375 L 27.140625 24.976562 L 26.929688 25.226562 L 26.773438 25.398438 L 26.613281 25.558594 L 26.492188 25.699219 L 26.421875 25.75 L 26.351562 25.71875 L 26.171875 25.488281 L 26.015625 25.3125 L 25.839844 25.046875 L 25.609375 24.644531 L 25.398438 24.273438 L 25.136719 23.820312 L 24.945312 23.484375 L 24.664062 22.992188 L 24.171875 22.148438 L 23.90625 21.691406 L 23.75 21.390625 L 23.730469 21.234375 L 23.871094 21.109375 L 24.03125 20.867188 L 24.242188 20.496094 L 24.503906 19.984375 L 24.679688 19.53125 L 24.820312 19.109375 L 24.945312 18.617188 L 25.046875 18.035156 L 25.101562 17.59375 L 25.117188 17.261719 L 25.117188 16.839844 L 25.101562 16.4375 L 25.03125 15.890625 L 24.960938 15.484375 L 24.804688 14.851562 L 24.625 14.34375 L 24.398438 13.835938 L 24.1875 13.429688 L 23.921875 12.992188 L 23.710938 12.691406 L 23.5 12.410156 L 23.308594 12.179688 L 23.148438 12.007812 L 22.746094 11.601562 L 22.554688 11.445312 L 22.324219 11.25 L 22.0625 11.054688 L 21.710938 10.828125 L 21.375 10.632812 L 20.898438 10.390625 L 20.585938 10.25 L 20.003906 10.039062 L 19.511719 9.898438 L 19.089844 9.808594 L 18.71875 9.757812 L 18.210938 9.71875 L 17.59375 9.71875 L 17.050781 9.757812 L 16.609375 9.808594 L 16.101562 9.914062 L 15.523438 10.089844 L 15.101562 10.25 L 14.710938 10.421875 L 14.378906 10.601562 L 14.027344 10.792969 L 13.695312 11.023438 L 13.445312 11.195312 L 13.253906 11.355469 L 13.023438 11.546875 L 12.867188 11.707031 L 12.726562 11.828125 L 12.53125 12.023438 L 12.515625 12.058594 L 12.480469 12.058594 L 12.445312 12.128906 L 12.289062 12.304688 L 12.09375 12.550781 L 11.9375 12.761719 L 11.757812 13.023438 L 11.617188 13.253906 L 11.375 13.695312 L 11.164062 14.148438 L 10.933594 14.75 L 10.84375 15.011719 L 10.703125 15.609375 L 10.632812 16.066406 L 10.601562 16.558594 L 10.601562 17.28125 L 10.632812 17.789062 L 10.703125 18.316406 L 10.828125 18.84375 L 10.953125 19.265625 L 11.144531 19.792969 L 11.304688 20.144531 L 11.515625 20.546875 L 11.742188 20.9375 L 11.898438 21.164062 L 11.988281 21.320312 L 11.96875 21.429688 L 11.757812 21.796875 L 11.515625 22.234375 L 11.25 22.675781 L 10.96875 23.167969 L 10.722656 23.589844 L 10.421875 24.101562 L 10.195312 24.503906 L 9.949219 24.960938 L 9.738281 25.296875 L 9.578125 25.507812 L 9.457031 25.664062 L 9.367188 25.789062 L 9.246094 25.679688 L 9.105469 25.539062 L 8.984375 25.398438 L 8.824219 25.242188 L 8.664062 25.046875 L 8.453125 24.804688 L 8.28125 24.574219 L 8 24.203125 L 7.609375 23.625 L 7.398438 23.289062 L 7.1875 22.921875 L 6.925781 22.429688 L 6.695312 21.9375 L 6.46875 21.390625 L 6.273438 20.867188 L 6.117188 20.355469 L 5.960938 19.722656 L 5.800781 18.929688 L 5.730469 18.4375 L 5.660156 17.578125 L 5.640625 17.171875 L 5.640625 16.59375 L 5.679688 16.015625 L 5.78125 15.101562 L 5.921875 14.398438 L 6.117188 13.625 L 6.328125 12.972656 L 6.59375 12.304688 L 6.804688 11.828125 L 7.136719 11.164062 L 7.382812 10.742188 L 7.558594 10.460938 L 7.804688 10.089844 L 8 9.808594 L 8.210938 9.527344 L 8.367188 9.335938 L 8.59375 9.054688 L 8.804688 8.804688 L 9.015625 8.578125 L 9.546875 8.050781 L 9.6875 7.929688 L 9.929688 7.71875 L 10.160156 7.523438 L 10.40625 7.328125 L 10.6875 7.117188 L 11.09375 6.835938 L 11.476562 6.59375 L 11.777344 6.414062 L 12.148438 6.203125 L 12.621094 5.960938 L 13.132812 5.730469 L 13.625 5.539062 L 14.328125 5.308594 L 14.820312 5.167969 L 15.453125 5.027344 L 16.085938 4.921875 L 16.789062 4.835938 Z M 17.367188 4.796875 "/>
<path style=" stroke:none;fill-rule:nonzero;fill:rgb(14.509804%,90.980392%,10.196078%);fill-opacity:1;" d="M 17.859375 13.484375 L 17.929688 13.515625 L 18.195312 14.007812 L 18.351562 14.273438 L 18.597656 14.710938 L 18.859375 15.1875 L 19.109375 15.609375 L 19.335938 15.996094 L 19.511719 16.296875 L 19.703125 16.628906 L 19.96875 17.085938 L 20.214844 17.507812 L 20.496094 18 L 20.796875 18.507812 L 21.007812 18.878906 L 21.269531 19.335938 L 21.480469 19.703125 L 21.671875 20.039062 L 21.921875 20.460938 L 22.148438 20.847656 L 22.394531 21.289062 L 22.570312 21.585938 L 22.851562 22.0625 L 23.046875 22.394531 L 23.34375 22.90625 L 23.589844 23.328125 L 23.871094 23.835938 L 24.132812 24.273438 L 24.382812 24.714844 L 24.664062 25.1875 L 24.90625 25.609375 L 25.207031 26.121094 L 25.4375 26.523438 L 25.398438 26.613281 L 25.226562 26.773438 L 25.015625 26.929688 L 24.75 27.105469 L 24.453125 27.296875 L 24.1875 27.457031 L 23.820312 27.667969 L 23.414062 27.878906 L 22.816406 28.160156 L 22.023438 28.476562 L 21.585938 28.632812 L 20.953125 28.828125 L 20.53125 28.933594 L 20.460938 28.914062 L 20.335938 28.742188 L 20.074219 28.28125 L 19.652344 27.546875 L 19.351562 27.035156 L 18.929688 26.296875 L 18.6875 25.859375 L 18.4375 25.4375 L 18.15625 24.945312 L 17.914062 24.554688 L 17.859375 24.539062 L 17.734375 24.714844 L 17.472656 25.171875 L 17.332031 25.398438 L 17.03125 25.910156 L 16.609375 26.648438 L 16.347656 27.105469 L 16.117188 27.492188 L 15.835938 27.984375 L 15.574219 28.460938 L 15.414062 28.722656 L 15.257812 28.914062 L 15.171875 28.933594 L 15.011719 28.882812 L 14.660156 28.792969 L 14.203125 28.652344 L 13.710938 28.476562 L 13.078125 28.230469 L 12.640625 28.039062 L 12.339844 27.898438 L 12.007812 27.71875 L 11.6875 27.546875 L 11.285156 27.296875 L 10.96875 27.085938 L 10.671875 26.875 L 10.421875 26.683594 L 10.320312 26.578125 L 10.351562 26.472656 L 10.617188 26.015625 L 10.8125 25.679688 L 10.984375 25.382812 L 11.25 24.90625 L 11.40625 24.644531 L 11.617188 24.273438 L 11.882812 23.820312 L 11.988281 23.640625 L 12.339844 23.027344 L 12.585938 22.605469 L 12.8125 22.203125 L 12.972656 21.9375 L 13.203125 21.550781 L 13.765625 20.566406 L 14.0625 20.054688 L 14.203125 19.8125 L 14.398438 19.476562 L 14.609375 19.109375 L 14.851562 18.667969 L 14.992188 18.4375 L 15.523438 17.523438 L 15.714844 17.191406 L 15.960938 16.769531 L 16.257812 16.257812 L 16.453125 15.925781 L 16.679688 15.539062 L 17.171875 14.695312 L 17.351562 14.378906 L 17.5625 13.976562 L 17.804688 13.554688 Z M 17.859375 13.484375 "/>
<path style=" stroke:none;fill-rule:nonzero;fill:rgb(0%,16.862745%,7.058824%);fill-opacity:1;" d="M 17.367188 4.796875 L 18.40625 4.796875 L 18.949219 4.835938 L 19.914062 4.957031 L 20.476562 5.0625 L 21.007812 5.1875 L 21.761719 5.414062 L 22.304688 5.609375 L 22.816406 5.820312 L 23.289062 6.046875 L 23.625 6.222656 L 24.011719 6.433594 L 24.414062 6.679688 L 24.90625 7.015625 L 25.242188 7.257812 L 25.523438 7.488281 L 25.699219 7.628906 L 25.945312 7.839844 L 26.15625 8.03125 L 26.296875 8.15625 L 26.859375 8.71875 L 27.140625 9.035156 L 27.335938 9.28125 L 27.527344 9.507812 L 27.738281 9.789062 L 28.039062 10.230469 L 28.28125 10.617188 L 28.492188 10.984375 L 28.703125 11.375 L 28.898438 11.742188 L 29.09375 12.164062 L 29.355469 12.8125 L 29.546875 13.394531 L 29.726562 14.046875 L 29.867188 14.75 L 29.96875 15.433594 L 30.039062 16.03125 L 30.078125 16.507812 L 30.078125 17.59375 L 30.023438 18.195312 L 29.9375 18.878906 L 29.796875 19.652344 L 29.65625 20.25 L 29.496094 20.757812 L 29.304688 21.320312 L 29.144531 21.710938 L 28.953125 22.132812 L 28.8125 22.414062 L 28.617188 22.78125 L 28.371094 23.203125 L 28.070312 23.695312 L 27.789062 24.117188 L 27.597656 24.382812 L 27.421875 24.609375 L 27.140625 24.976562 L 26.929688 25.226562 L 26.773438 25.398438 L 26.613281 25.558594 L 26.492188 25.699219 L 26.421875 25.75 L 26.351562 25.71875 L 26.171875 25.488281 L 26.140625 25.453125 L 26.15625 25.382812 L 26.402344 25.136719 L 26.523438 24.996094 L 26.753906 24.75 L 26.894531 24.574219 L 27.125 24.292969 L 27.367188 23.960938 L 27.597656 23.640625 L 27.773438 23.359375 L 28 22.992188 L 28.210938 22.625 L 28.390625 22.304688 L 28.601562 21.902344 L 28.8125 21.429688 L 28.984375 20.96875 L 29.214844 20.265625 L 29.375 19.671875 L 29.460938 19.230469 L 29.566406 18.632812 L 29.65625 18.015625 L 29.6875 17.683594 L 29.707031 17.3125 L 29.707031 16.699219 L 29.671875 16.136719 L 29.617188 15.609375 L 29.546875 15.117188 L 29.390625 14.273438 L 29.179688 13.445312 L 28.984375 12.867188 L 28.8125 12.445312 L 28.632812 12.039062 L 28.492188 11.757812 L 28.25 11.285156 L 28.019531 10.898438 L 27.808594 10.5625 L 27.617188 10.28125 L 27.40625 9.984375 L 27.226562 9.757812 L 27.105469 9.597656 L 26.914062 9.367188 L 26.703125 9.125 L 26.421875 8.824219 L 25.980469 8.382812 L 25.839844 8.261719 L 25.59375 8.050781 L 25.4375 7.929688 L 25.046875 7.609375 L 24.765625 7.398438 L 24.484375 7.207031 L 24.152344 6.996094 L 23.78125 6.765625 L 23.398438 6.554688 L 22.78125 6.242188 L 22.21875 5.992188 L 21.621094 5.78125 L 21.09375 5.625 L 20.234375 5.414062 L 19.601562 5.289062 L 19.070312 5.21875 L 18.578125 5.1875 L 17.191406 5.1875 L 16.664062 5.21875 L 16.257812 5.273438 L 15.523438 5.414062 L 14.90625 5.554688 L 14.289062 5.730469 L 13.640625 5.960938 L 13.132812 6.171875 L 12.710938 6.363281 L 12.375 6.539062 L 11.917969 6.785156 L 11.6875 6.925781 L 11.054688 7.347656 L 10.773438 7.558594 L 10.546875 7.734375 L 10.300781 7.929688 L 10.054688 8.140625 L 9.878906 8.296875 L 9.667969 8.492188 L 9.4375 8.703125 L 9.085938 9.054688 L 8.929688 9.246094 L 8.773438 9.421875 L 8.648438 9.578125 L 8.472656 9.808594 L 8.261719 10.089844 L 7.945312 10.5625 L 7.734375 10.898438 L 7.578125 11.179688 L 7.367188 11.566406 L 7.03125 12.25 L 6.820312 12.761719 L 6.644531 13.234375 L 6.484375 13.746094 L 6.292969 14.589844 L 6.171875 15.242188 L 6.101562 15.765625 L 6.0625 16.101562 L 6.046875 16.507812 L 6.046875 17.523438 L 6.0625 17.914062 L 6.152344 18.578125 L 6.273438 19.320312 L 6.398438 19.863281 L 6.523438 20.320312 L 6.679688 20.847656 L 6.925781 21.480469 L 7.066406 21.832031 L 7.328125 22.359375 L 7.578125 22.835938 L 7.804688 23.21875 L 8.191406 23.800781 L 8.421875 24.117188 L 8.578125 24.328125 L 8.734375 24.523438 L 8.914062 24.714844 L 9.070312 24.90625 L 9.246094 25.101562 L 9.40625 25.296875 L 9.597656 25.417969 L 9.597656 25.488281 L 9.492188 25.609375 L 9.367188 25.789062 L 9.246094 25.679688 L 9.105469 25.539062 L 8.984375 25.398438 L 8.824219 25.242188 L 8.664062 25.046875 L 8.453125 24.804688 L 8.28125 24.574219 L 8 24.203125 L 7.609375 23.625 L 7.398438 23.289062 L 7.1875 22.921875 L 6.925781 22.429688 L 6.695312 21.9375 L 6.46875 21.390625 L 6.273438 20.867188 L 6.117188 20.355469 L 5.960938 19.722656 L 5.800781 18.929688 L 5.730469 18.4375 L 5.660156 17.578125 L 5.640625 17.171875 L 5.640625 16.59375 L 5.679688 16.015625 L 5.78125 15.101562 L 5.921875 14.398438 L 6.117188 13.625 L 6.328125 12.972656 L 6.59375 12.304688 L 6.804688 11.828125 L 7.136719 11.164062 L 7.382812 10.742188 L 7.558594 10.460938 L 7.804688 10.089844 L 8 9.808594 L 8.210938 9.527344 L 8.367188 9.335938 L 8.59375 9.054688 L 8.804688 8.804688 L 9.015625 8.578125 L 9.546875 8.050781 L 9.6875 7.929688 L 9.929688 7.71875 L 10.160156 7.523438 L 10.40625 7.328125 L 10.6875 7.117188 L 11.09375 6.835938 L 11.476562 6.59375 L 11.777344 6.414062 L 12.148438 6.203125 L 12.621094 5.960938 L 13.132812 5.730469 L 13.625 5.539062 L 14.328125 5.308594 L 14.820312 5.167969 L 15.453125 5.027344 L 16.085938 4.921875 L 16.789062 4.835938 Z M 17.367188 4.796875 "/>
<path style=" stroke:none;fill-rule:nonzero;fill:rgb(0%,78.823529%,9.411765%);fill-opacity:1;" d="M 17.859375 13.484375 L 17.929688 13.515625 L 18.195312 14.007812 L 18.351562 14.273438 L 18.597656 14.710938 L 18.859375 15.1875 L 19.109375 15.609375 L 19.335938 15.996094 L 19.511719 16.296875 L 19.703125 16.628906 L 19.96875 17.085938 L 20.214844 17.507812 L 20.496094 18 L 20.796875 18.507812 L 21.007812 18.878906 L 21.269531 19.335938 L 21.480469 19.703125 L 21.671875 20.039062 L 21.921875 20.460938 L 22.148438 20.847656 L 22.394531 21.289062 L 22.570312 21.585938 L 22.851562 22.0625 L 23.046875 22.394531 L 23.34375 22.90625 L 23.589844 23.328125 L 23.871094 23.835938 L 24.132812 24.273438 L 24.382812 24.714844 L 24.664062 25.1875 L 24.90625 25.609375 L 25.207031 26.121094 L 25.4375 26.523438 L 25.398438 26.613281 L 25.226562 26.773438 L 25.015625 26.929688 L 24.75 27.105469 L 24.453125 27.296875 L 24.1875 27.457031 L 23.820312 27.667969 L 23.414062 27.878906 L 22.816406 28.160156 L 22.023438 28.476562 L 21.585938 28.632812 L 20.953125 28.828125 L 20.53125 28.933594 L 20.460938 28.914062 L 20.335938 28.742188 L 20.074219 28.28125 L 19.652344 27.546875 L 19.351562 27.035156 L 18.929688 26.296875 L 18.6875 25.859375 L 18.4375 25.4375 L 18.15625 24.945312 L 17.914062 24.554688 L 17.859375 24.539062 L 17.734375 24.714844 L 17.472656 25.171875 L 17.332031 25.398438 L 17.03125 25.910156 L 16.609375 26.648438 L 16.347656 27.105469 L 16.117188 27.492188 L 15.835938 27.984375 L 15.574219 28.460938 L 15.414062 28.722656 L 15.257812 28.914062 L 15.171875 28.933594 L 15.011719 28.882812 L 14.660156 28.792969 L 14.203125 28.652344 L 13.710938 28.476562 L 13.078125 28.230469 L 12.640625 28.039062 L 12.339844 27.898438 L 12.007812 27.71875 L 11.6875 27.546875 L 11.285156 27.296875 L 10.96875 27.085938 L 10.671875 26.875 L 10.421875 26.683594 L 10.320312 26.578125 L 10.351562 26.472656 L 10.617188 26.015625 L 10.8125 25.679688 L 10.984375 25.382812 L 11.25 24.90625 L 11.40625 24.644531 L 11.617188 24.273438 L 11.882812 23.820312 L 11.988281 23.640625 L 12.339844 23.027344 L 12.585938 22.605469 L 12.8125 22.203125 L 12.972656 21.9375 L 13.203125 21.550781 L 13.765625 20.566406 L 14.0625 20.054688 L 14.203125 19.8125 L 14.398438 19.476562 L 14.609375 19.109375 L 14.851562 18.667969 L 14.992188 18.4375 L 15.523438 17.523438 L 15.714844 17.191406 L 15.960938 16.769531 L 16.257812 16.257812 L 16.453125 15.925781 L 16.679688 15.539062 L 17.171875 14.695312 L 17.351562 14.378906 L 17.5625 13.976562 L 17.804688 13.554688 Z M 17.894531 14.625 L 17.648438 14.640625 L 17.542969 14.695312 L 17.421875 14.730469 L 17.296875 14.921875 L 17.226562 15.03125 L 17.15625 15.1875 L 17.070312 15.328125 L 16.945312 15.539062 L 16.820312 15.714844 L 16.664062 15.945312 L 16.523438 16.226562 L 16.417969 16.417969 L 16.257812 16.648438 L 16.117188 16.945312 L 16.015625 17.171875 L 15.945312 17.296875 L 15.785156 17.492188 L 15.625 17.734375 L 15.503906 17.929688 L 15.46875 18.015625 L 15.46875 18.070312 L 15.433594 18.070312 L 15.257812 18.386719 L 15.152344 18.546875 L 15.046875 18.757812 L 14.871094 19.054688 L 14.800781 19.179688 L 14.695312 19.335938 L 14.695312 19.371094 L 14.660156 19.371094 L 14.539062 19.582031 L 14.429688 19.742188 L 14.308594 20.023438 L 14.238281 20.144531 L 14.097656 20.40625 L 13.9375 20.636719 L 13.78125 20.917969 L 13.710938 21.058594 L 13.710938 21.09375 L 13.675781 21.09375 L 13.605469 21.199219 L 13.429688 21.429688 L 13.289062 21.65625 L 13.273438 21.742188 L 13.234375 21.742188 L 13.148438 21.953125 L 13.042969 22.09375 L 12.992188 22.21875 L 12.992188 22.253906 L 12.953125 22.253906 L 12.882812 22.375 L 12.796875 22.484375 L 12.742188 22.585938 L 12.640625 22.765625 L 12.53125 22.957031 L 12.410156 23.167969 L 12.339844 23.34375 L 12.25 23.449219 L 12.179688 23.554688 L 12.023438 23.820312 L 11.9375 23.992188 L 11.898438 24.082031 L 11.777344 24.292969 L 11.671875 24.503906 L 11.617188 24.59375 L 11.617188 24.625 L 11.585938 24.625 L 11.476562 24.765625 L 11.390625 24.945312 L 11.304688 25.242188 L 11.144531 25.59375 L 11.054688 25.929688 L 11.023438 26.085938 L 11.023438 26.296875 L 11.179688 26.542969 L 11.304688 26.648438 L 11.460938 26.734375 L 11.726562 26.914062 L 11.917969 27.035156 L 12.078125 27.125 L 12.148438 27.140625 L 12.148438 27.175781 L 12.269531 27.226562 L 12.320312 27.226562 L 12.320312 27.265625 L 12.5 27.351562 L 12.65625 27.421875 L 12.902344 27.5625 L 13.464844 27.84375 L 13.746094 27.949219 L 14.0625 28.070312 L 14.308594 28.160156 L 14.519531 28.210938 L 14.625 28.265625 L 14.800781 28.320312 L 15.011719 28.390625 L 15.257812 28.390625 L 15.398438 28.320312 L 15.523438 28.160156 L 15.554688 28.070312 L 15.59375 28.070312 L 15.664062 27.96875 L 15.734375 27.898438 L 15.976562 27.457031 L 16.226562 27.035156 L 16.4375 26.664062 L 16.648438 26.3125 L 16.910156 25.859375 L 17.085938 25.558594 L 17.59375 24.695312 L 17.71875 24.503906 L 17.789062 24.328125 L 17.875 24.242188 L 17.914062 24.242188 L 17.945312 24.3125 L 18.054688 24.46875 L 18.210938 24.609375 L 18.246094 24.609375 L 18.28125 24.679688 L 18.492188 24.976562 L 18.632812 25.257812 L 18.6875 25.398438 L 18.773438 25.578125 L 18.808594 25.578125 L 18.808594 25.628906 L 18.84375 25.628906 L 18.878906 25.699219 L 18.949219 25.804688 L 19.070312 25.980469 L 19.109375 25.980469 L 19.125 26.050781 L 19.230469 26.191406 L 19.335938 26.382812 L 19.421875 26.542969 L 19.476562 26.683594 L 19.546875 26.773438 L 19.671875 27.015625 L 19.757812 27.105469 L 19.914062 27.386719 L 20.074219 27.6875 L 20.109375 27.6875 L 20.125 27.757812 L 20.265625 27.914062 L 20.285156 27.96875 L 20.355469 28.039062 L 20.390625 28.039062 L 20.40625 28.109375 L 20.425781 28.125 L 20.425781 28.28125 L 20.460938 28.335938 L 20.65625 28.351562 L 20.882812 28.320312 L 21.007812 28.28125 L 21.148438 28.25 L 21.304688 28.195312 L 21.515625 28.140625 L 21.640625 28.109375 L 21.992188 27.96875 L 22.289062 27.859375 L 22.429688 27.789062 L 22.625 27.71875 L 22.851562 27.617188 L 23.203125 27.457031 L 23.414062 27.335938 L 23.519531 27.265625 L 23.609375 27.246094 L 23.609375 27.210938 L 23.695312 27.195312 L 23.820312 27.125 L 23.960938 27.054688 L 24.011719 27 L 24.203125 26.894531 L 24.382812 26.753906 L 24.433594 26.734375 L 24.433594 26.703125 L 24.539062 26.664062 L 24.644531 26.59375 L 24.644531 26.5625 L 24.714844 26.523438 L 24.835938 26.382812 L 24.835938 26.351562 L 24.90625 26.3125 L 24.976562 26.242188 L 24.945312 26.15625 L 24.890625 26.140625 L 24.875 26.070312 L 24.820312 25.980469 L 24.734375 25.890625 L 24.695312 25.789062 L 24.609375 25.578125 L 24.46875 25.328125 L 24.363281 25.117188 L 24.292969 24.996094 L 24.257812 24.925781 L 24.222656 24.925781 L 24.203125 24.835938 L 24.082031 24.664062 L 24.046875 24.609375 L 24.011719 24.609375 L 23.976562 24.523438 L 23.851562 24.3125 L 23.800781 24.132812 L 23.730469 23.992188 L 23.695312 23.992188 L 23.640625 23.78125 L 23.519531 23.589844 L 23.484375 23.589844 L 23.449219 23.5 L 23.328125 23.378906 L 23.289062 23.378906 L 23.273438 23.308594 L 23.132812 23.0625 L 23.0625 22.816406 L 22.976562 22.640625 L 22.9375 22.640625 L 22.90625 22.554688 L 22.886719 22.5 L 22.851562 22.5 L 22.835938 22.429688 L 22.726562 22.273438 L 22.695312 22.253906 L 22.675781 22.164062 L 22.585938 21.972656 L 22.464844 21.726562 L 22.34375 21.585938 L 22.289062 21.480469 L 22.148438 21.269531 L 22.078125 21.128906 L 21.9375 20.9375 L 21.796875 20.726562 L 21.761719 20.726562 L 21.726562 20.617188 L 21.671875 20.476562 L 21.640625 20.476562 L 21.601562 20.390625 L 21.550781 20.285156 L 21.515625 20.285156 L 21.5 20.195312 L 21.445312 20.09375 L 21.410156 20.09375 L 21.390625 20.023438 L 21.269531 19.84375 L 21.128906 19.5625 L 21.058594 19.441406 L 21.039062 19.320312 L 21.007812 19.265625 L 20.96875 19.265625 L 20.9375 19.195312 L 20.796875 19 L 20.707031 18.878906 L 20.671875 18.878906 L 20.636719 18.808594 L 20.515625 18.546875 L 20.460938 18.386719 L 20.40625 18.316406 L 20.335938 18.140625 L 20.304688 18.140625 L 20.285156 18.015625 L 20.179688 17.824219 L 20.144531 17.824219 L 20.109375 17.734375 L 20.054688 17.632812 L 20.039062 17.578125 L 20.003906 17.578125 L 19.96875 17.492188 L 19.882812 17.367188 L 19.863281 17.3125 L 19.828125 17.3125 L 19.6875 17.03125 L 19.582031 16.839844 L 19.546875 16.789062 L 19.511719 16.789062 L 19.476562 16.699219 L 19.265625 16.417969 L 19.140625 16.226562 L 19.019531 15.996094 L 18.929688 15.875 L 18.859375 15.679688 L 18.773438 15.554688 L 18.71875 15.433594 L 18.597656 15.292969 L 18.476562 15.242188 L 18.316406 15.046875 L 18.210938 14.820312 L 18.140625 14.730469 L 18.035156 14.695312 L 18.015625 14.660156 L 17.929688 14.660156 L 17.929688 14.625 Z M 17.894531 14.625 "/>
<path style=" stroke:none;fill-rule:nonzero;fill:rgb(0%,17.254902%,7.058824%);fill-opacity:1;" d="M 17.859375 24.273438 L 17.945312 24.34375 L 18.085938 24.644531 L 18.265625 24.925781 L 18.40625 25.171875 L 18.617188 25.523438 L 18.71875 25.71875 L 18.96875 26.140625 L 19.070312 26.332031 L 19.25 26.613281 L 19.351562 26.773438 L 19.460938 26.984375 L 19.5625 27.140625 L 19.652344 27.316406 L 19.757812 27.492188 L 19.863281 27.6875 L 19.96875 27.859375 L 20.320312 28.421875 L 20.335938 28.492188 L 20.515625 28.511719 L 20.882812 28.421875 L 21.410156 28.28125 L 21.832031 28.125 L 22.585938 27.808594 L 23.007812 27.617188 L 23.449219 27.40625 L 23.851562 27.175781 L 24.171875 26.984375 L 24.433594 26.804688 L 24.785156 26.5625 L 24.945312 26.4375 L 25.03125 26.367188 L 25.136719 26.210938 L 25.15625 26.085938 L 25.1875 26.085938 L 25.4375 26.523438 L 25.398438 26.613281 L 25.226562 26.773438 L 25.015625 26.929688 L 24.75 27.105469 L 24.453125 27.296875 L 24.1875 27.457031 L 23.820312 27.667969 L 23.414062 27.878906 L 22.816406 28.160156 L 22.023438 28.476562 L 21.585938 28.632812 L 20.953125 28.828125 L 20.53125 28.933594 L 20.460938 28.914062 L 20.335938 28.742188 L 20.074219 28.28125 L 19.652344 27.546875 L 19.351562 27.035156 L 18.929688 26.296875 L 18.6875 25.859375 L 18.4375 25.4375 L 18.15625 24.945312 L 17.914062 24.554688 L 17.859375 24.539062 L 17.734375 24.714844 L 17.472656 25.171875 L 17.332031 25.398438 L 17.03125 25.910156 L 16.609375 26.648438 L 16.347656 27.105469 L 16.117188 27.492188 L 15.835938 27.984375 L 15.574219 28.460938 L 15.414062 28.722656 L 15.257812 28.914062 L 15.171875 28.933594 L 15.011719 28.882812 L 14.660156 28.792969 L 14.203125 28.652344 L 13.710938 28.476562 L 13.078125 28.230469 L 12.640625 28.039062 L 12.339844 27.898438 L 12.007812 27.71875 L 11.6875 27.546875 L 11.285156 27.296875 L 10.96875 27.085938 L 10.671875 26.875 L 10.421875 26.683594 L 10.320312 26.578125 L 10.351562 26.472656 L 10.492188 26.226562 L 10.5625 26.261719 L 10.6875 26.382812 L 11.023438 26.632812 L 11.335938 26.84375 L 11.636719 27.035156 L 12.039062 27.265625 L 12.304688 27.40625 L 12.640625 27.5625 L 12.882812 27.6875 L 13.375 27.898438 L 13.992188 28.125 L 14.46875 28.28125 L 15.03125 28.460938 L 15.152344 28.492188 L 15.292969 28.492188 L 15.382812 28.421875 L 15.554688 28.160156 L 15.855469 27.648438 L 16.117188 27.175781 L 16.628906 26.3125 L 16.890625 25.859375 L 17.070312 25.558594 L 17.578125 24.695312 L 17.773438 24.382812 Z M 17.859375 24.273438 "/>
<path style=" stroke:none;fill-rule:nonzero;fill:rgb(0%,78.823529%,9.411765%);fill-opacity:1;" d="M 17.191406 5.167969 L 18.578125 5.167969 L 19.210938 5.21875 L 19.6875 5.289062 L 20.234375 5.398438 L 21.09375 5.609375 L 21.78125 5.820312 L 22.304688 6.011719 L 22.816406 6.242188 L 23.203125 6.433594 L 23.539062 6.609375 L 23.90625 6.820312 L 24.484375 7.1875 L 24.765625 7.382812 L 25.242188 7.75 L 25.488281 7.960938 L 25.648438 8.085938 L 25.890625 8.296875 L 26.121094 8.507812 L 26.59375 8.984375 L 26.71875 9.125 L 26.875 9.296875 L 27.035156 9.492188 L 27.226562 9.71875 L 27.367188 9.914062 L 27.597656 10.230469 L 27.828125 10.5625 L 28.054688 10.933594 L 28.210938 11.195312 L 28.421875 11.601562 L 28.601562 11.9375 L 28.757812 12.269531 L 28.84375 12.480469 L 29.039062 12.972656 L 29.214844 13.5 L 29.425781 14.34375 L 29.601562 15.328125 L 29.671875 15.925781 L 29.707031 16.347656 L 29.726562 16.699219 L 29.726562 17.3125 L 29.6875 17.859375 L 29.601562 18.507812 L 29.496094 19.140625 L 29.40625 19.582031 L 29.265625 20.144531 L 29.074219 20.757812 L 28.933594 21.164062 L 28.84375 21.375 L 28.828125 21.320312 L 28.984375 20.898438 L 29.144531 20.390625 L 29.25 19.96875 L 29.304688 19.773438 L 29.355469 19.441406 L 29.355469 19.28125 L 29.390625 19.140625 L 29.40625 18.914062 L 29.445312 18.808594 L 29.476562 18.367188 L 29.515625 18.175781 L 29.496094 18.140625 L 29.53125 17.984375 L 29.546875 17.804688 L 29.566406 16.820312 L 29.546875 16.277344 L 29.515625 15.890625 L 29.496094 15.574219 L 29.390625 15.132812 L 29.320312 14.660156 L 29.25 14.398438 L 29.179688 14.027344 L 29.109375 13.746094 L 29.039062 13.554688 L 28.953125 13.234375 L 28.792969 12.8125 L 28.722656 12.671875 L 28.632812 12.445312 L 28.546875 12.289062 L 28.441406 12.007812 L 28.320312 11.796875 L 28.179688 11.515625 L 28.109375 11.390625 L 27.949219 11.109375 L 27.84375 10.914062 L 27.71875 10.722656 L 27.578125 10.53125 L 27.527344 10.441406 L 27.457031 10.335938 L 27.40625 10.265625 L 27.40625 10.230469 L 27.367188 10.230469 L 27.351562 10.160156 L 27.28125 10.125 L 27.140625 9.929688 L 26.964844 9.703125 L 26.824219 9.546875 L 26.703125 9.40625 L 26.542969 9.210938 L 26.382812 9.035156 L 26.382812 9 L 26.3125 8.964844 L 26.3125 8.929688 L 26.261719 8.914062 L 26.085938 8.734375 L 26.085938 8.703125 L 26.015625 8.664062 L 25.804688 8.453125 L 25.75 8.421875 L 25.75 8.382812 L 25.679688 8.351562 L 25.539062 8.210938 L 25.46875 8.171875 L 25.382812 8.085938 L 25.242188 7.980469 L 25.242188 7.945312 L 25.15625 7.910156 L 24.976562 7.789062 L 24.835938 7.679688 L 24.835938 7.648438 L 24.75 7.609375 L 24.679688 7.558594 L 24.679688 7.523438 L 24.609375 7.507812 L 24.609375 7.46875 L 24.523438 7.4375 L 24.523438 7.398438 L 24.414062 7.367188 L 24.242188 7.257812 L 24.242188 7.226562 L 24.171875 7.207031 L 24.03125 7.101562 L 23.976562 7.085938 L 23.976562 7.046875 L 23.871094 7.03125 L 23.609375 6.875 L 23.328125 6.714844 L 22.921875 6.503906 L 22.675781 6.382812 L 22.464844 6.292969 L 22.148438 6.171875 L 21.921875 6.0625 L 21.65625 5.976562 L 21.199219 5.835938 L 20.726562 5.710938 L 20.074219 5.570312 L 19.320312 5.46875 L 19.019531 5.414062 L 18.226562 5.378906 L 17.015625 5.398438 L 16.769531 5.429688 L 16.4375 5.484375 L 16.101562 5.554688 L 15.503906 5.660156 L 15.011719 5.765625 L 14.609375 5.871094 L 14.148438 5.992188 L 13.921875 6.082031 L 13.675781 6.152344 L 13.554688 6.203125 L 13.289062 6.3125 L 13.234375 6.34375 L 13.0625 6.398438 L 12.992188 6.433594 L 12.851562 6.453125 L 12.742188 6.453125 L 12.671875 6.539062 L 12.640625 6.539062 L 12.640625 6.574219 L 12.480469 6.609375 L 12.410156 6.609375 L 12.390625 6.664062 L 12.289062 6.714844 L 12.234375 6.695312 L 12.25 6.625 L 12.164062 6.679688 L 12.007812 6.765625 L 11.9375 6.875 L 11.847656 6.890625 L 11.757812 6.945312 L 11.601562 7.046875 L 11.476562 7.066406 L 11.546875 6.996094 L 11.898438 6.785156 L 12.148438 6.644531 L 12.53125 6.433594 L 12.9375 6.242188 L 13.289062 6.082031 L 13.746094 5.90625 L 14.289062 5.710938 L 14.78125 5.570312 L 15.34375 5.429688 L 16.15625 5.273438 L 16.488281 5.21875 L 16.875 5.1875 Z M 17.191406 5.167969 "/>
<path style=" stroke:none;fill-rule:nonzero;fill:rgb(0%,78.823529%,9.411765%);fill-opacity:1;" d="M 10.984375 7.382812 L 11.023438 7.398438 L 10.792969 7.578125 L 10.757812 7.578125 L 10.757812 7.609375 L 10.5625 7.75 L 10.476562 7.859375 L 10.320312 7.960938 L 10.25 8.050781 L 10.054688 8.191406 L 10 8.242188 L 9.96875 8.242188 L 9.96875 8.28125 L 9.914062 8.332031 L 9.878906 8.332031 L 9.878906 8.367188 L 9.84375 8.367188 L 9.808594 8.4375 L 9.71875 8.542969 L 9.667969 8.632812 L 9.527344 8.789062 L 9.421875 8.914062 L 9.316406 9 L 9.195312 9.140625 L 9.105469 9.226562 L 9.035156 9.316406 L 9 9.316406 L 9 9.351562 L 8.929688 9.421875 L 8.789062 9.597656 L 8.683594 9.773438 L 8.492188 10 L 8.421875 10.089844 L 8.332031 10.160156 L 8.191406 10.390625 L 8.121094 10.53125 L 8 10.6875 L 7.945312 10.773438 L 7.789062 11.054688 L 7.664062 11.234375 L 7.558594 11.445312 L 7.488281 11.566406 L 7.398438 11.707031 L 7.277344 11.8125 L 7.226562 11.988281 L 7.066406 12.234375 L 6.996094 12.460938 L 6.960938 12.601562 L 6.875 12.921875 L 6.785156 13.132812 L 6.75 13.234375 L 6.695312 13.445312 L 6.664062 13.445312 L 6.679688 13.5 L 6.644531 13.5 L 6.609375 13.640625 L 6.554688 13.746094 L 6.554688 13.835938 L 6.539062 13.851562 L 6.503906 14.007812 L 6.414062 14.414062 L 6.363281 14.519531 L 6.328125 14.695312 L 6.292969 14.941406 L 6.292969 15.222656 L 6.257812 15.453125 L 6.203125 15.609375 L 6.203125 16.046875 L 6.1875 16.296875 L 6.171875 17 L 6.1875 17.789062 L 6.242188 18.246094 L 6.292969 18.5625 L 6.328125 18.96875 L 6.414062 19.492188 L 6.46875 19.757812 L 6.503906 19.863281 L 6.503906 19.933594 L 6.539062 19.933594 L 6.574219 20.074219 L 6.695312 20.445312 L 6.765625 20.636719 L 6.890625 20.953125 L 6.925781 21.058594 L 7.015625 21.25 L 7.101562 21.480469 L 7.242188 21.742188 L 7.367188 22.042969 L 7.4375 22.164062 L 7.539062 22.359375 L 7.679688 22.570312 L 7.769531 22.726562 L 7.769531 22.765625 L 7.804688 22.765625 L 7.929688 22.957031 L 8.210938 23.34375 L 8.261719 23.429688 L 8.4375 23.679688 L 8.578125 23.871094 L 8.632812 23.921875 L 8.632812 23.960938 L 8.664062 23.960938 L 8.789062 24.152344 L 8.859375 24.222656 L 8.964844 24.34375 L 8.964844 24.382812 L 9.035156 24.414062 L 9.070312 24.503906 L 9.140625 24.574219 L 9.140625 24.609375 L 9.226562 24.644531 L 9.296875 24.734375 L 9.367188 24.765625 L 9.457031 24.765625 L 9.527344 24.75 L 9.546875 24.765625 L 9.578125 24.679688 L 9.648438 24.644531 L 9.828125 24.644531 L 9.914062 24.574219 L 10 24.46875 L 10.140625 24.363281 L 10.25 24.222656 L 10.421875 23.851562 L 10.617188 23.519531 L 10.722656 23.34375 L 10.792969 23.21875 L 10.898438 23.097656 L 10.933594 23.097656 L 10.933594 23.046875 L 11.023438 23.007812 L 11.003906 23.097656 L 10.773438 23.5 L 10.492188 23.976562 L 10.210938 24.46875 L 9.949219 24.960938 L 9.738281 25.296875 L 9.632812 25.4375 L 9.546875 25.398438 L 9.367188 25.277344 L 9.210938 25.085938 L 9.035156 24.890625 L 8.875 24.695312 L 8.664062 24.46875 L 8.4375 24.171875 L 8.226562 23.871094 L 8.050781 23.625 L 7.890625 23.378906 L 7.679688 23.046875 L 7.417969 22.570312 L 7.1875 22.132812 L 7.066406 21.851562 L 6.976562 21.65625 L 6.804688 21.21875 L 6.679688 20.882812 L 6.59375 20.601562 L 6.433594 20.074219 L 6.3125 19.5625 L 6.203125 19.019531 L 6.101562 18.335938 L 6.046875 17.914062 L 6.03125 17.523438 L 6.03125 16.507812 L 6.046875 16.101562 L 6.117188 15.484375 L 6.222656 14.851562 L 6.382812 14.117188 L 6.484375 13.695312 L 6.679688 13.078125 L 6.875 12.585938 L 7.066406 12.148438 L 7.398438 11.460938 L 7.609375 11.074219 L 7.820312 10.722656 L 8.140625 10.25 L 8.351562 9.949219 L 8.59375 9.632812 L 8.789062 9.386719 L 8.945312 9.210938 L 9.105469 9.015625 L 9.578125 8.542969 L 9.71875 8.421875 L 10 8.15625 L 10.195312 8 L 10.40625 7.820312 L 10.882812 7.453125 Z M 10.984375 7.382812 "/>
<path style=" stroke:none;fill-rule:nonzero;fill:rgb(0%,67.45098%,7.843137%);fill-opacity:1;" d="M 17.859375 13.484375 L 17.929688 13.515625 L 18.195312 14.007812 L 18.351562 14.273438 L 18.597656 14.710938 L 18.859375 15.1875 L 19.109375 15.609375 L 19.335938 15.996094 L 19.511719 16.296875 L 19.703125 16.628906 L 19.96875 17.085938 L 20.214844 17.507812 L 20.496094 18 L 20.796875 18.507812 L 21.007812 18.878906 L 21.269531 19.335938 L 21.480469 19.703125 L 21.671875 20.039062 L 21.921875 20.460938 L 22.148438 20.847656 L 22.394531 21.289062 L 22.570312 21.585938 L 22.851562 22.0625 L 23.046875 22.394531 L 23.34375 22.90625 L 23.589844 23.328125 L 23.871094 23.835938 L 24.132812 24.273438 L 24.382812 24.714844 L 24.664062 25.1875 L 24.90625 25.609375 L 25.171875 26.050781 L 25.15625 26.210938 L 25.085938 26.3125 L 24.976562 26.4375 L 24.804688 26.5625 L 24.539062 26.753906 L 24.273438 26.929688 L 23.941406 27.140625 L 23.570312 27.351562 L 23.238281 27.527344 L 22.746094 27.757812 L 22.21875 27.984375 L 21.65625 28.210938 L 21.289062 28.335938 L 20.617188 28.511719 L 20.40625 28.53125 L 20.335938 28.492188 L 20.234375 28.300781 L 20.109375 28.109375 L 19.933594 27.828125 L 19.773438 27.5625 L 19.652344 27.335938 L 19.5625 27.195312 L 19.492188 27.054688 L 19.351562 26.824219 L 19.265625 26.664062 L 19.039062 26.296875 L 18.808594 25.890625 L 18.617188 25.578125 L 18.507812 25.382812 L 18.226562 24.890625 L 18.035156 24.574219 L 18.054688 24.523438 L 18.140625 24.664062 L 18.140625 24.695312 L 18.175781 24.695312 L 18.28125 24.890625 L 18.4375 25.171875 L 18.527344 25.3125 L 18.527344 25.347656 L 18.5625 25.347656 L 18.667969 25.558594 L 18.789062 25.75 L 18.878906 25.929688 L 18.898438 25.980469 L 18.949219 26 L 18.949219 26.050781 L 18.984375 26.050781 L 19.054688 26.15625 L 19.125 26.332031 L 19.230469 26.523438 L 19.28125 26.578125 L 19.28125 26.613281 L 19.320312 26.613281 L 19.441406 26.824219 L 19.632812 27.175781 L 19.757812 27.421875 L 19.828125 27.527344 L 19.828125 27.597656 L 19.863281 27.597656 L 19.96875 27.773438 L 20.039062 27.898438 L 20.074219 27.984375 L 20.109375 27.984375 L 20.164062 28.070312 L 20.164062 28.125 L 20.195312 28.125 L 20.320312 28.300781 L 20.425781 28.390625 L 20.617188 28.390625 L 20.847656 28.351562 L 21.023438 28.300781 L 21.289062 28.25 L 21.515625 28.179688 L 21.691406 28.109375 L 21.992188 28 L 22.183594 27.914062 L 22.484375 27.808594 L 22.675781 27.71875 L 22.9375 27.597656 L 23.167969 27.492188 L 23.5 27.335938 L 23.695312 27.210938 L 23.941406 27.085938 L 24.132812 26.964844 L 24.554688 26.683594 L 24.804688 26.507812 L 25.015625 26.296875 L 25.03125 26.121094 L 24.976562 25.929688 L 24.890625 25.820312 L 24.785156 25.609375 L 24.609375 25.328125 L 24.523438 25.15625 L 24.382812 24.976562 L 24.292969 24.765625 L 24.171875 24.59375 L 24.082031 24.363281 L 23.90625 24.0625 L 23.800781 23.851562 L 23.640625 23.660156 L 23.589844 23.570312 L 23.589844 23.519531 L 23.554688 23.519531 L 23.5 23.398438 L 23.414062 23.273438 L 23.328125 23.0625 L 23.148438 22.765625 L 23.007812 22.515625 L 23.007812 22.484375 L 22.976562 22.484375 L 22.867188 22.304688 L 22.765625 22.078125 L 22.65625 21.882812 L 22.65625 21.851562 L 22.625 21.851562 L 22.5 21.621094 L 22.375 21.460938 L 22.289062 21.289062 L 22.132812 21.023438 L 22.132812 20.988281 L 22.09375 20.988281 L 22.023438 20.847656 L 21.921875 20.671875 L 21.851562 20.53125 L 21.742188 20.375 L 21.585938 20.109375 L 21.515625 19.96875 L 21.480469 19.914062 L 21.480469 19.863281 L 21.445312 19.863281 L 21.390625 19.742188 L 21.234375 19.492188 L 21.164062 19.335938 L 21.007812 19.089844 L 20.898438 18.914062 L 20.707031 18.632812 L 20.566406 18.335938 L 20.390625 18 L 20.265625 17.84375 L 20.179688 17.683594 L 20.003906 17.351562 L 19.914062 17.191406 L 19.722656 16.910156 L 19.617188 16.734375 L 19.476562 16.507812 L 19.371094 16.296875 L 19.140625 15.890625 L 19.039062 15.679688 L 18.96875 15.59375 L 18.914062 15.503906 L 18.808594 15.363281 L 18.527344 14.800781 L 18.40625 14.625 L 18.335938 14.484375 L 18.175781 14.308594 L 18.035156 14.046875 L 17.964844 13.957031 L 17.84375 13.9375 L 17.773438 13.992188 L 17.734375 13.992188 L 17.703125 14.097656 L 17.613281 14.257812 L 17.5625 14.308594 L 17.542969 14.34375 L 17.507812 14.34375 L 17.472656 14.429688 L 17.351562 14.589844 L 17.3125 14.589844 L 17.296875 14.660156 L 17.121094 14.941406 L 17.015625 15.132812 L 16.859375 15.34375 L 16.664062 15.695312 L 16.59375 15.804688 L 16.558594 15.804688 L 16.523438 15.960938 L 16.417969 16.15625 L 16.242188 16.488281 L 16.101562 16.71875 L 15.976562 16.929688 L 15.855469 17.070312 L 15.804688 17.121094 L 15.695312 17.402344 L 15.503906 17.753906 L 15.257812 18.105469 L 14.941406 18.738281 L 14.820312 18.914062 L 14.679688 19.195312 L 14.609375 19.230469 L 14.570312 19.300781 L 14.46875 19.441406 L 14.328125 19.722656 L 14.148438 20.09375 L 14.027344 20.265625 L 13.921875 20.460938 L 13.726562 20.777344 L 13.625 20.96875 L 13.5 21.234375 L 13.375 21.429688 L 13.09375 21.851562 L 13.042969 21.902344 L 13.007812 21.882812 L 13.273438 21.429688 L 13.765625 20.566406 L 14.0625 20.054688 L 14.203125 19.8125 L 14.398438 19.476562 L 14.609375 19.109375 L 14.851562 18.667969 L 14.992188 18.4375 L 15.523438 17.523438 L 15.714844 17.191406 L 15.960938 16.769531 L 16.257812 16.257812 L 16.453125 15.925781 L 16.679688 15.539062 L 17.171875 14.695312 L 17.351562 14.378906 L 17.5625 13.976562 L 17.804688 13.554688 Z M 17.859375 13.484375 "/>
<path style=" stroke:none;fill-rule:nonzero;fill:rgb(0%,67.058824%,7.843137%);fill-opacity:1;" d="M 17.191406 5.167969 L 18.578125 5.167969 L 19.210938 5.21875 L 19.6875 5.289062 L 20.234375 5.398438 L 21.09375 5.609375 L 21.78125 5.820312 L 22.304688 6.011719 L 22.816406 6.242188 L 23.203125 6.433594 L 23.539062 6.609375 L 23.90625 6.820312 L 24.484375 7.1875 L 24.765625 7.382812 L 25.242188 7.75 L 25.488281 7.960938 L 25.648438 8.085938 L 25.890625 8.296875 L 26.121094 8.507812 L 26.59375 8.984375 L 26.71875 9.125 L 26.875 9.296875 L 27.035156 9.492188 L 27.226562 9.71875 L 27.367188 9.914062 L 27.597656 10.230469 L 27.828125 10.5625 L 28.054688 10.933594 L 28.210938 11.195312 L 28.421875 11.601562 L 28.601562 11.9375 L 28.757812 12.269531 L 28.84375 12.480469 L 29.039062 12.972656 L 29.214844 13.5 L 29.425781 14.34375 L 29.601562 15.328125 L 29.671875 15.925781 L 29.707031 16.347656 L 29.726562 16.699219 L 29.726562 17.3125 L 29.6875 17.859375 L 29.601562 18.507812 L 29.496094 19.140625 L 29.40625 19.582031 L 29.265625 20.144531 L 29.074219 20.757812 L 28.933594 21.164062 L 28.84375 21.375 L 28.828125 21.320312 L 28.984375 20.898438 L 29.144531 20.390625 L 29.25 19.96875 L 29.304688 19.773438 L 29.335938 19.773438 L 29.355469 19.617188 L 29.460938 19.054688 L 29.546875 18.476562 L 29.601562 18.054688 L 29.636719 17.59375 L 29.636719 16.699219 L 29.585938 16.136719 L 29.566406 15.785156 L 29.496094 15.203125 L 29.445312 14.960938 L 29.40625 14.695312 L 29.320312 14.273438 L 29.179688 13.710938 L 29.125 13.554688 L 29.039062 13.21875 L 28.96875 13.0625 L 28.914062 12.8125 L 28.792969 12.585938 L 28.722656 12.359375 L 28.5625 12.058594 L 28.28125 11.496094 L 28.125 11.214844 L 27.984375 10.984375 L 27.859375 10.773438 L 27.71875 10.5625 L 27.546875 10.320312 L 27.335938 10.039062 L 27.195312 9.84375 L 27.015625 9.617188 L 26.804688 9.367188 L 26.59375 9.140625 L 26.472656 9 L 26.296875 8.824219 L 26.296875 8.789062 L 26.226562 8.753906 L 25.960938 8.492188 L 25.929688 8.472656 L 25.929688 8.4375 L 25.859375 8.402344 L 25.734375 8.28125 L 25.507812 8.101562 L 25.507812 8.070312 L 25.4375 8.03125 L 25.382812 8 L 25.382812 7.960938 L 25.277344 7.910156 L 25.277344 7.875 L 25.207031 7.839844 L 24.996094 7.679688 L 24.996094 7.648438 L 24.90625 7.609375 L 24.714844 7.46875 L 24.433594 7.257812 L 24.203125 7.117188 L 24.046875 7.015625 L 23.660156 6.765625 L 23.46875 6.664062 L 23.148438 6.484375 L 22.816406 6.328125 L 22.640625 6.242188 L 22.132812 6.03125 L 21.9375 5.960938 L 21.691406 5.851562 L 21.410156 5.765625 L 20.96875 5.640625 L 20.515625 5.539062 L 20.144531 5.449219 L 19.40625 5.328125 L 18.757812 5.257812 L 17.945312 5.21875 L 17.191406 5.21875 L 16.578125 5.257812 L 16.367188 5.257812 L 16.367188 5.238281 L 16.875 5.1875 Z M 17.191406 5.167969 "/>
<path style=" stroke:none;fill-rule:nonzero;fill:rgb(0%,77.254902%,9.411765%);fill-opacity:1;" d="M 10.984375 7.382812 L 11.023438 7.398438 L 10.792969 7.578125 L 10.757812 7.578125 L 10.757812 7.609375 L 10.5625 7.75 L 10.476562 7.859375 L 10.320312 7.960938 L 10.25 8.050781 L 10.054688 8.191406 L 10 8.242188 L 9.96875 8.242188 L 9.96875 8.28125 L 9.914062 8.332031 L 9.878906 8.332031 L 9.878906 8.367188 L 9.84375 8.367188 L 9.808594 8.4375 L 9.71875 8.542969 L 9.667969 8.632812 L 9.527344 8.789062 L 9.421875 8.914062 L 9.316406 9 L 9.195312 9.140625 L 9.105469 9.226562 L 9.035156 9.316406 L 9 9.316406 L 9 9.351562 L 8.929688 9.421875 L 8.789062 9.597656 L 8.683594 9.773438 L 8.492188 10 L 8.421875 10.089844 L 8.332031 10.160156 L 8.191406 10.390625 L 8.121094 10.53125 L 8 10.6875 L 7.945312 10.773438 L 7.789062 11.054688 L 7.664062 11.234375 L 7.558594 11.445312 L 7.488281 11.566406 L 7.398438 11.707031 L 7.277344 11.8125 L 7.226562 11.988281 L 7.066406 12.234375 L 6.996094 12.460938 L 6.960938 12.601562 L 6.875 12.921875 L 6.785156 13.132812 L 6.75 13.234375 L 6.695312 13.445312 L 6.664062 13.445312 L 6.679688 13.5 L 6.644531 13.5 L 6.609375 13.640625 L 6.554688 13.746094 L 6.554688 13.835938 L 6.539062 13.851562 L 6.503906 14.007812 L 6.414062 14.414062 L 6.363281 14.519531 L 6.328125 14.539062 L 6.203125 15.171875 L 6.152344 15.503906 L 6.101562 16.101562 L 6.082031 16.59375 L 6.082031 17.261719 L 6.101562 17.929688 L 6.117188 18.140625 L 6.117188 18.335938 L 6.101562 18.335938 L 6.046875 17.914062 L 6.03125 17.523438 L 6.03125 16.507812 L 6.046875 16.101562 L 6.117188 15.484375 L 6.222656 14.851562 L 6.382812 14.117188 L 6.484375 13.695312 L 6.679688 13.078125 L 6.875 12.585938 L 7.066406 12.148438 L 7.398438 11.460938 L 7.609375 11.074219 L 7.820312 10.722656 L 8.140625 10.25 L 8.351562 9.949219 L 8.59375 9.632812 L 8.789062 9.386719 L 8.945312 9.210938 L 9.105469 9.015625 L 9.578125 8.542969 L 9.71875 8.421875 L 10 8.15625 L 10.195312 8 L 10.40625 7.820312 L 10.882812 7.453125 Z M 10.984375 7.382812 "/>
<path style=" stroke:none;fill-rule:nonzero;fill:rgb(0%,67.058824%,7.843137%);fill-opacity:1;" d="M 11.445312 24.625 L 11.460938 24.679688 L 11.375 24.855469 L 11.265625 25.015625 L 11.164062 25.15625 L 11.039062 25.453125 L 10.914062 25.699219 L 10.863281 25.820312 L 10.773438 26 L 10.722656 26.085938 L 10.722656 26.226562 L 10.773438 26.351562 L 10.8125 26.367188 L 10.8125 26.402344 L 10.882812 26.4375 L 11.023438 26.5625 L 11.375 26.789062 L 11.707031 27 L 11.898438 27.125 L 12.460938 27.40625 L 12.867188 27.617188 L 13.273438 27.789062 L 13.535156 27.898438 L 13.695312 27.96875 L 13.90625 28.039062 L 14.167969 28.140625 L 14.570312 28.265625 L 14.851562 28.351562 L 14.941406 28.390625 L 15.046875 28.40625 L 15.273438 28.40625 L 15.382812 28.351562 L 15.414062 28.351562 L 15.453125 28.28125 L 15.484375 28.265625 L 15.453125 28.351562 L 15.328125 28.492188 L 15.292969 28.511719 L 15.152344 28.511719 L 14.695312 28.371094 L 14.078125 28.179688 L 13.464844 27.949219 L 13.007812 27.757812 L 12.65625 27.597656 L 12.359375 27.4375 L 12.078125 27.296875 L 11.726562 27.105469 L 11.445312 26.929688 L 11.023438 26.648438 L 10.652344 26.367188 L 10.511719 26.226562 L 10.546875 26.140625 L 10.757812 25.769531 L 10.914062 25.507812 L 11.09375 25.1875 L 11.355469 24.734375 L 11.40625 24.644531 Z M 11.445312 24.625 "/>
<path style=" stroke:none;fill-rule:nonzero;fill:rgb(0%,67.058824%,7.843137%);fill-opacity:1;" d="M 6.609375 20.601562 L 6.644531 20.636719 L 6.734375 20.898438 L 6.925781 21.390625 L 7.101562 21.796875 L 7.207031 22.007812 L 7.296875 22.203125 L 7.453125 22.5 L 7.558594 22.710938 L 7.648438 22.867188 L 7.839844 23.203125 L 7.839844 23.238281 L 7.875 23.238281 L 8 23.414062 L 8.140625 23.625 L 8.296875 23.851562 L 8.4375 24.011719 L 8.59375 24.222656 L 8.613281 24.292969 L 8.648438 24.292969 L 8.71875 24.398438 L 8.71875 24.433594 L 8.753906 24.433594 L 8.914062 24.625 L 8.984375 24.679688 L 8.984375 24.714844 L 9.015625 24.714844 L 9.140625 24.875 L 9.175781 24.890625 L 9.175781 24.925781 L 9.246094 24.960938 L 9.4375 25.117188 L 9.578125 25.207031 L 9.667969 25.226562 L 9.71875 25.207031 L 9.757812 25.226562 L 9.738281 25.296875 L 9.632812 25.4375 L 9.546875 25.398438 L 9.367188 25.277344 L 9.210938 25.085938 L 9.035156 24.890625 L 8.875 24.695312 L 8.664062 24.46875 L 8.4375 24.171875 L 8.226562 23.871094 L 8.050781 23.625 L 7.890625 23.378906 L 7.679688 23.046875 L 7.417969 22.570312 L 7.1875 22.132812 L 7.066406 21.851562 L 6.976562 21.65625 L 6.804688 21.21875 L 6.679688 20.882812 L 6.609375 20.671875 Z M 6.609375 20.601562 "/>
<path style=" stroke:none;fill-rule:nonzero;fill:rgb(0%,76.862745%,9.411765%);fill-opacity:1;" d="M 6.960938 12.460938 L 6.976562 12.460938 L 6.976562 12.570312 L 6.875 12.921875 L 6.785156 13.132812 L 6.75 13.234375 L 6.695312 13.445312 L 6.664062 13.445312 L 6.679688 13.5 L 6.644531 13.5 L 6.609375 13.640625 L 6.554688 13.746094 L 6.554688 13.835938 L 6.539062 13.851562 L 6.503906 14.007812 L 6.414062 14.414062 L 6.363281 14.519531 L 6.328125 14.539062 L 6.203125 15.171875 L 6.152344 15.503906 L 6.101562 16.101562 L 6.082031 16.59375 L 6.082031 17.261719 L 6.101562 17.929688 L 6.117188 18.140625 L 6.117188 18.335938 L 6.101562 18.335938 L 6.046875 17.914062 L 6.03125 17.523438 L 6.03125 16.507812 L 6.046875 16.101562 L 6.117188 15.484375 L 6.222656 14.851562 L 6.382812 14.117188 L 6.484375 13.695312 L 6.679688 13.078125 L 6.875 12.585938 L 6.90625 12.5 Z M 6.960938 12.460938 "/>
<path style=" stroke:none;fill-rule:nonzero;fill:rgb(0%,79.215686%,9.803922%);fill-opacity:1;" d="M 26.984375 24.433594 L 26.984375 24.484375 L 26.789062 24.714844 L 26.632812 24.90625 L 26.4375 25.101562 L 26.3125 25.242188 L 26.121094 25.4375 L 25.929688 25.1875 L 25.679688 24.765625 L 25.59375 24.625 L 25.628906 24.554688 L 25.789062 24.609375 L 25.890625 24.695312 L 25.929688 24.785156 L 26.015625 24.820312 L 26.070312 24.890625 L 26.226562 24.90625 L 26.28125 24.945312 L 26.296875 25.03125 L 26.402344 25.015625 L 26.402344 24.976562 L 26.507812 24.890625 L 26.5625 24.890625 L 26.578125 24.855469 L 26.648438 24.835938 L 26.683594 24.765625 L 26.773438 24.664062 L 26.804688 24.664062 L 26.84375 24.59375 Z M 26.984375 24.433594 "/>
<path style=" stroke:none;fill-rule:nonzero;fill:rgb(0.784314%,80%,9.803922%);fill-opacity:1;" d="M 24.222656 20.53125 L 24.273438 20.546875 L 24.203125 20.726562 L 24.152344 20.742188 L 24.132812 20.882812 L 24.101562 20.882812 L 24.0625 20.96875 L 24.03125 20.988281 L 23.960938 21.128906 L 23.941406 21.25 L 23.90625 21.375 L 24.011719 21.65625 L 24.011719 21.761719 L 24.082031 21.8125 L 24.0625 21.902344 L 24.03125 21.902344 L 23.820312 21.53125 L 23.730469 21.339844 L 23.730469 21.234375 L 23.871094 21.109375 L 24.03125 20.867188 Z M 24.222656 20.53125 "/>
<path style=" stroke:none;fill-rule:nonzero;fill:rgb(0%,67.058824%,7.843137%);fill-opacity:1;" d="M 6.3125 14.429688 L 6.328125 14.429688 L 6.3125 14.609375 L 6.1875 15.273438 L 6.132812 15.679688 L 6.101562 16.101562 L 6.082031 16.59375 L 6.082031 17.261719 L 6.101562 17.929688 L 6.117188 18.140625 L 6.117188 18.335938 L 6.101562 18.335938 L 6.046875 17.914062 L 6.03125 17.523438 L 6.03125 16.507812 L 6.046875 16.101562 L 6.117188 15.484375 L 6.222656 14.851562 Z M 6.3125 14.429688 "/>
<path style=" stroke:none;fill-rule:nonzero;fill:rgb(0.392157%,79.607843%,9.803922%);fill-opacity:1;" d="M 21.09375 10.460938 L 21.339844 10.476562 L 21.550781 10.5625 L 21.761719 10.722656 L 21.8125 10.773438 L 21.8125 10.8125 L 21.882812 10.84375 L 21.9375 10.914062 L 21.9375 10.953125 L 21.851562 10.914062 L 21.410156 10.652344 L 21.09375 10.476562 Z M 21.09375 10.460938 "/>
<path style=" stroke:none;fill-rule:nonzero;fill:rgb(0.784314%,80%,9.803922%);fill-opacity:1;" d="M 11.375 20.375 L 11.425781 20.390625 L 11.707031 20.882812 L 11.847656 21.09375 L 11.9375 21.21875 L 11.882812 21.269531 L 11.8125 21.25 L 11.742188 21.128906 L 11.671875 20.917969 L 11.617188 20.867188 L 11.566406 20.777344 L 11.476562 20.617188 L 11.476562 20.585938 L 11.445312 20.585938 L 11.375 20.425781 Z M 11.375 20.375 "/>
<path style=" stroke:none;fill-rule:nonzero;fill:rgb(0.392157%,79.607843%,9.803922%);fill-opacity:1;" d="M 25.117188 16.539062 L 25.15625 16.539062 L 25.226562 16.699219 L 25.242188 17 L 25.207031 17.242188 L 25.136719 17.296875 L 25.117188 16.839844 Z M 25.117188 16.539062 "/>
<path style=" stroke:none;fill-rule:nonzero;fill:rgb(0.784314%,80%,9.803922%);fill-opacity:1;" d="M 11.96875 12.621094 L 12.007812 12.65625 L 11.796875 12.972656 L 11.617188 13.253906 L 11.566406 13.304688 L 11.546875 13.273438 L 11.636719 13.042969 L 11.726562 12.921875 L 11.8125 12.761719 L 11.898438 12.691406 L 11.9375 12.65625 Z M 11.96875 12.621094 "/>
<path style=" stroke:none;fill-rule:nonzero;fill:rgb(0%,68.627451%,7.843137%);fill-opacity:1;" d="M 12.304688 23.078125 L 12.339844 23.078125 L 12.320312 23.148438 L 12.21875 23.359375 L 12.148438 23.519531 L 12.007812 23.765625 L 11.828125 24.011719 L 11.757812 24.0625 L 11.796875 23.976562 L 11.988281 23.640625 L 12.199219 23.273438 Z M 12.304688 23.078125 "/>
<path style=" stroke:none;fill-rule:nonzero;fill:rgb(0%,74.117647%,8.627451%);fill-opacity:1;" d="M 29.335938 19.773438 L 29.355469 19.8125 L 29.214844 20.320312 L 28.96875 21.078125 L 28.84375 21.375 L 28.828125 21.320312 L 28.984375 20.898438 L 29.144531 20.390625 L 29.25 19.96875 L 29.265625 19.914062 L 29.304688 19.914062 L 29.320312 19.792969 Z M 29.335938 19.773438 "/>
<path style=" stroke:none;fill-rule:nonzero;fill:rgb(0.784314%,80%,9.803922%);fill-opacity:1;" d="M 22.234375 11.125 L 22.359375 11.144531 L 22.359375 11.179688 L 22.414062 11.179688 L 22.414062 11.214844 L 22.445312 11.214844 L 22.515625 11.304688 L 22.605469 11.390625 L 22.605469 11.425781 L 22.640625 11.425781 L 22.726562 11.53125 L 22.835938 11.617188 L 22.796875 11.65625 L 22.605469 11.476562 L 22.414062 11.320312 L 22.234375 11.179688 Z M 22.234375 11.125 "/>
<path style=" stroke:none;fill-rule:nonzero;fill:rgb(0%,74.117647%,8.627451%);fill-opacity:1;" d="M 10.984375 7.382812 L 11.023438 7.398438 L 10.792969 7.578125 L 10.757812 7.578125 L 10.757812 7.609375 L 10.5625 7.75 L 10.476562 7.859375 L 10.320312 7.960938 L 10.25 8.050781 L 10.054688 8.191406 L 9.949219 8.226562 L 10.039062 8.140625 L 10.210938 7.980469 L 10.460938 7.789062 L 10.742188 7.558594 Z M 10.984375 7.382812 "/>
<path style=" stroke:none;fill-rule:nonzero;fill:rgb(0.392157%,76.078431%,9.019608%);fill-opacity:1;" d="M 12.269531 6.574219 L 12.304688 6.59375 L 12.21875 6.664062 L 12.007812 6.765625 L 11.9375 6.875 L 11.847656 6.890625 L 11.757812 6.945312 L 11.601562 7.046875 L 11.476562 7.066406 L 11.546875 6.996094 L 11.898438 6.785156 L 12.148438 6.644531 Z M 12.269531 6.574219 "/>
<path style=" stroke:none;fill-rule:nonzero;fill:rgb(0%,79.215686%,9.803922%);fill-opacity:1;" d="M 15.664062 27.949219 L 15.679688 27.984375 L 15.503906 28.265625 L 15.363281 28.390625 L 15.273438 28.421875 L 15.046875 28.421875 L 14.90625 28.390625 L 14.851562 28.371094 L 14.851562 28.335938 L 14.976562 28.351562 L 15.011719 28.371094 L 15.257812 28.371094 L 15.398438 28.300781 L 15.503906 28.160156 L 15.554688 28.070312 L 15.59375 28.070312 L 15.609375 27.984375 Z M 15.664062 27.949219 "/>
<path style=" stroke:none;fill-rule:nonzero;fill:rgb(0%,67.058824%,7.843137%);fill-opacity:1;" d="M 26.632812 24.855469 L 26.632812 24.90625 L 26.4375 25.101562 L 26.3125 25.242188 L 26.121094 25.4375 L 26.050781 25.347656 L 26.085938 25.277344 L 26.226562 25.257812 L 26.296875 25.171875 L 26.332031 25.171875 L 26.367188 25.101562 L 26.421875 25.085938 L 26.4375 25.03125 L 26.578125 24.90625 Z M 26.632812 24.855469 "/>
<path style=" stroke:none;fill-rule:nonzero;fill:rgb(0%,69.019608%,7.843137%);fill-opacity:1;" d="M 11.445312 24.625 L 11.460938 24.679688 L 11.375 24.855469 L 11.265625 25.015625 L 11.164062 25.15625 L 11.09375 25.3125 L 11.039062 25.328125 L 11.074219 25.226562 L 11.304688 24.820312 L 11.40625 24.644531 Z M 11.445312 24.625 "/>
<path style=" stroke:none;fill-rule:nonzero;fill:rgb(0.392157%,79.607843%,9.803922%);fill-opacity:1;" d="M 24.382812 13.765625 L 24.484375 13.816406 L 24.574219 13.957031 L 24.609375 14.046875 L 24.625 14.238281 L 24.59375 14.257812 L 24.382812 13.796875 Z M 24.382812 13.765625 "/>
<path style=" stroke:none;fill-rule:nonzero;fill:rgb(0.784314%,80%,9.803922%);fill-opacity:1;" d="M 23.167969 12.007812 L 23.257812 12.023438 L 23.359375 12.09375 L 23.359375 12.128906 L 23.398438 12.128906 L 23.429688 12.21875 L 23.5 12.25 L 23.554688 12.359375 L 23.539062 12.429688 L 23.449219 12.339844 L 23.289062 12.164062 L 23.167969 12.023438 Z M 23.167969 12.007812 "/>
<path style=" stroke:none;fill-rule:nonzero;fill:rgb(0%,21.960784%,7.058824%);fill-opacity:1;" d="M 17.859375 13.484375 L 17.929688 13.515625 L 18 13.640625 L 18 13.675781 L 17.859375 13.675781 L 17.773438 13.726562 L 17.734375 13.726562 L 17.753906 13.640625 Z M 17.859375 13.484375 "/>
<path style=" stroke:none;fill-rule:nonzero;fill:rgb(0.784314%,79.607843%,9.803922%);fill-opacity:1;" d="M 11.425781 13.464844 L 11.460938 13.535156 L 11.304688 13.835938 L 11.234375 13.976562 L 11.214844 13.976562 L 11.234375 13.835938 L 11.265625 13.726562 L 11.40625 13.484375 Z M 11.425781 13.464844 "/>
<path style=" stroke:none;fill-rule:nonzero;fill:rgb(0%,74.901961%,9.019608%);fill-opacity:1;" d="M 7.226562 11.8125 L 7.257812 11.8125 L 7.226562 11.988281 L 7.066406 12.234375 L 6.996094 12.460938 L 6.925781 12.5 L 6.976562 12.339844 Z M 7.226562 11.8125 "/>
<path style=" stroke:none;fill-rule:nonzero;fill:rgb(0%,69.019608%,7.843137%);fill-opacity:1;" d="M 16.820312 15.3125 L 16.859375 15.3125 L 16.820312 15.414062 L 16.664062 15.695312 L 16.59375 15.804688 L 16.558594 15.804688 L 16.558594 15.855469 L 16.507812 15.875 L 16.539062 15.785156 L 16.804688 15.328125 Z M 16.820312 15.3125 "/>
<path style=" stroke:none;fill-rule:nonzero;fill:rgb(0%,67.058824%,7.843137%);fill-opacity:1;" d="M 9.578125 8.542969 L 9.617188 8.5625 L 9.175781 9 L 9.15625 9.035156 L 9.125 9.035156 L 9.085938 9.105469 L 8.964844 9.210938 L 9 9.140625 L 9.210938 8.914062 Z M 9.578125 8.542969 "/>
<path style=" stroke:none;fill-rule:nonzero;fill:rgb(0%,70.980392%,8.235294%);fill-opacity:1;" d="M 29.335938 19.773438 L 29.355469 19.8125 L 29.214844 20.320312 L 29.195312 20.320312 L 29.195312 20.164062 L 29.265625 19.914062 L 29.304688 19.914062 L 29.320312 19.792969 Z M 29.335938 19.773438 "/>
<path style=" stroke:none;fill-rule:nonzero;fill:rgb(0%,73.333333%,8.627451%);fill-opacity:1;" d="M 17.859375 24.222656 L 17.914062 24.242188 L 18 24.382812 L 18.015625 24.484375 L 17.964844 24.414062 L 17.894531 24.3125 L 17.84375 24.3125 L 17.734375 24.46875 L 17.71875 24.433594 L 17.824219 24.257812 Z M 17.859375 24.222656 "/>
<path style=" stroke:none;fill-rule:nonzero;fill:rgb(0%,72.54902%,8.627451%);fill-opacity:1;" d="M 26.984375 24.433594 L 26.984375 24.484375 L 26.789062 24.714844 L 26.683594 24.835938 L 26.664062 24.785156 L 26.773438 24.664062 L 26.804688 24.664062 L 26.84375 24.59375 Z M 26.984375 24.433594 "/>
<path style=" stroke:none;fill-rule:nonzero;fill:rgb(0%,74.117647%,9.019608%);fill-opacity:1;" d="M 15.664062 27.949219 L 15.679688 27.984375 L 15.503906 28.265625 L 15.46875 28.210938 L 15.554688 28.070312 L 15.59375 28.070312 L 15.609375 27.984375 Z M 15.664062 27.949219 "/>
<path style=" stroke:none;fill-rule:nonzero;fill:rgb(0%,72.54902%,8.627451%);fill-opacity:1;" d="M 10.210938 7.980469 L 10.25 8 L 10.089844 8.171875 L 9.984375 8.226562 L 9.949219 8.210938 L 10.125 8.050781 Z M 10.210938 7.980469 "/>
<path style=" stroke:none;fill-rule:nonzero;fill:rgb(1.176471%,80.392157%,9.803922%);fill-opacity:1;" d="M 24.101562 13.21875 L 24.1875 13.304688 L 24.242188 13.375 L 24.242188 13.484375 L 24.171875 13.414062 L 24.101562 13.289062 Z M 24.101562 13.21875 "/>
<path style=" stroke:none;fill-rule:nonzero;fill:rgb(0%,73.333333%,8.627451%);fill-opacity:1;" d="M 7.066406 12.148438 L 7.085938 12.199219 L 6.996094 12.460938 L 6.925781 12.5 L 6.976562 12.339844 Z M 7.066406 12.148438 "/>
<path style=" stroke:none;fill-rule:nonzero;fill:rgb(2.352941%,81.176471%,9.803922%);fill-opacity:1;" d="M 11.742188 21.726562 L 11.757812 21.796875 L 11.671875 21.953125 L 11.636719 21.953125 L 11.65625 21.851562 L 11.6875 21.78125 L 11.726562 21.78125 Z M 11.742188 21.726562 "/>
<path style=" stroke:none;fill-rule:nonzero;fill:rgb(0.784314%,79.607843%,9.803922%);fill-opacity:1;" d="M 11.515625 22.132812 L 11.546875 22.132812 L 11.515625 22.234375 L 11.445312 22.304688 L 11.425781 22.21875 Z M 11.515625 22.132812 "/>
<path style=" stroke:none;fill-rule:nonzero;fill:rgb(0%,70.196078%,8.235294%);fill-opacity:1;" d="M 12.304688 23.078125 L 12.339844 23.078125 L 12.320312 23.148438 L 12.234375 23.308594 L 12.179688 23.34375 L 12.21875 23.238281 Z M 12.304688 23.078125 "/>
<path style=" stroke:none;fill-rule:nonzero;fill:rgb(0%,69.803922%,8.235294%);fill-opacity:1;" d="M 16.820312 15.3125 L 16.859375 15.3125 L 16.820312 15.414062 L 16.769531 15.503906 L 16.699219 15.539062 L 16.734375 15.453125 Z M 16.820312 15.3125 "/>
<path style=" stroke:none;fill-rule:nonzero;fill:rgb(0%,69.803922%,8.235294%);fill-opacity:1;" d="M 12.65625 22.5 L 12.691406 22.515625 L 12.585938 22.695312 L 12.53125 22.726562 L 12.570312 22.640625 Z M 12.65625 22.5 "/>
</g>
</svg>
