<svg xmlns="http://www.w3.org/2000/svg" viewBox="0 0 36 36">
  <path d="M17.367 4.797h1.04l.542.039.965.121.563.106.53.125.755.226.543.195.511.211.473.227.336.176.387.21.402.247.492.336.336.242.281.23.176.14.246.212.211.191.14.125.563.563.282.316.195.246.191.227.211.281.301.441.242.387.211.367.211.391.195.367.196.422.261.649.192.582.18.652.14.703.102.684.07.597.04.477v1.086l-.056.601-.085.684-.141.773-.14.598-.16.508-.192.562-.16.39-.192.423-.14.281-.196.367-.246.422-.3.492-.282.422-.191.266-.176.226-.281.368-.211.25-.157.171-.16.16-.12.141-.071.051-.07-.031-.18-.23-.156-.177-.176-.265-.23-.402-.212-.372-.261-.453-.192-.336-.28-.492-.493-.844-.266-.457-.156-.3-.02-.157.141-.125.16-.242.211-.37.262-.513.176-.453.14-.422.125-.492.102-.582.055-.441.015-.332v-.422l-.015-.402-.07-.547-.071-.407-.156-.632-.18-.508-.227-.508-.21-.406-.266-.438-.211-.3-.211-.282-.191-.23-.16-.172-.403-.406-.191-.157-.23-.195-.262-.195-.352-.227-.336-.195-.477-.242-.312-.141-.582-.21-.492-.142-.422-.09-.371-.05-.508-.04h-.617l-.543.04-.442.05-.507.106-.579.176-.421.16-.391.172-.332.18-.352.191-.332.23-.25.172-.191.16-.23.192-.157.16-.14.121-.196.195-.015.036h-.036l-.035.07-.156.176-.195.246-.156.21-.18.262-.14.23-.243.442-.21.453-.231.602-.09.262-.14.597-.071.457-.031.493v.722l.03.508.071.527.125.528.125.422.192.527.16.352.21.402.227.39.156.227.09.156-.02.11-.21.367-.242.437-.266.442-.281.492-.246.422-.301.512-.227.402-.246.457-.21.336-.16.21-.122.157-.09.125-.12-.11-.142-.14-.12-.14-.16-.157-.16-.195-.212-.242-.172-.23L8 24.202l-.39-.578-.212-.336-.21-.367-.262-.492-.23-.492-.227-.547-.196-.524-.156-.512-.156-.632-.16-.793-.07-.492-.07-.86-.02-.406v-.578l.039-.578.101-.914.14-.704.196-.773.211-.652.266-.668.21-.477.333-.664.246-.422.176-.281.246-.371.195-.28.21-.282.157-.191.227-.281.21-.25.212-.227.53-.527.142-.121.242-.211.23-.196.246-.195.281-.21.407-.282.383-.242.3-.18.371-.21.473-.243.512-.23.492-.192.703-.23.492-.141.633-.14.633-.106.703-.086Zm0 0" style="stroke:none;fill-rule:nonzero;fill:#25e81a;fill-opacity:1"/>
  <path d="m17.86 13.484.07.032.265.492.157.265.246.438.261.476.25.422.227.387.176.3.191.333.266.457.246.422.281.492.3.508.212.37.262.458.21.367.192.336.25.422.226.387.247.441.175.297.282.477.195.332.297.511.246.422.281.508.262.437.25.442.281.473.242.421.301.512.23.402-.039.09-.171.16-.211.157-.266.175-.297.192-.265.16-.368.211-.406.21-.598.282-.793.317-.437.156-.633.195-.422.106-.07-.02-.125-.172-.262-.46-.422-.735-.3-.512-.422-.738-.242-.438-.25-.422-.282-.492-.242-.39-.055-.016-.125.176-.261.457-.141.226-.3.512-.423.738-.261.457-.23.387-.282.492-.262.477-.16.262-.156.191-.086.02-.16-.051-.352-.09-.457-.14-.492-.176-.633-.247-.437-.19-.301-.142-.332-.18-.32-.171-.403-.25-.316-.211-.297-.211-.25-.191-.102-.106.032-.105.265-.457.195-.336.172-.297.266-.477.156-.261.211-.372.266-.453.105-.18.352-.613.246-.422.226-.402.16-.265.231-.387.563-.985.296-.511.141-.242.195-.336.211-.368.243-.441.14-.23.531-.915.192-.332.246-.421.297-.512.195-.332.227-.387.492-.844.18-.316.21-.402.243-.422Zm0 0" style="stroke:none;fill-rule:nonzero;fill:#25e81a;fill-opacity:1"/>
  <path d="M17.367 4.797h1.04l.542.039.965.121.563.106.53.125.755.226.543.195.511.211.473.227.336.176.387.21.402.247.492.336.336.242.281.23.176.14.246.212.211.191.14.125.563.563.282.316.195.246.191.227.211.281.301.441.242.387.211.367.211.391.195.367.196.422.261.649.192.582.18.652.14.703.102.684.07.597.04.477v1.086l-.056.601-.085.684-.141.773-.14.598-.16.508-.192.562-.16.39-.192.423-.14.281-.196.367-.246.422-.3.492-.282.422-.191.266-.176.226-.281.368-.211.25-.157.171-.16.16-.12.141-.071.051-.07-.031-.18-.23-.031-.036.015-.07.246-.246.121-.14.23-.247.142-.176.23-.281.242-.332.23-.32.176-.282.227-.367.21-.367.18-.32.212-.403.21-.472.172-.461.23-.703.161-.594.086-.442.105-.597.09-.617.032-.332.019-.372V16.7l-.035-.562-.055-.528-.07-.492-.156-.844-.211-.828-.196-.578-.172-.422-.18-.406-.14-.281-.242-.473-.23-.387-.211-.335-.192-.282-.21-.297-.18-.226-.122-.16-.19-.23-.212-.243-.281-.3-.442-.442-.14-.121-.246-.211-.157-.121-.39-.32-.281-.212-.282-.191-.332-.21-.37-.231-.384-.211-.617-.313-.562-.25-.598-.21-.527-.157-.86-.21-.632-.126-.532-.07-.492-.032h-1.387l-.527.032-.406.054-.735.141-.617.14-.617.176-.648.23-.508.212-.422.191-.336.176-.457.246-.23.14-.633.423-.282.21-.226.176-.246.196-.246.21-.176.157-.211.195-.23.211-.352.352-.156.191-.157.176-.125.156-.175.23-.211.282-.317.473-.21.335-.157.282-.21.386-.337.684-.21.512-.176.472-.16.512-.192.844-.121.652-.07.524-.04.336-.015.406v1.015l.016.391.09.664.12.742.125.543.125.457.157.528.246.632.14.352.262.527.25.477.227.383.386.582.23.316.157.211.156.195.18.192.156.191.176.196.16.195.192.121v.07l-.106.121-.125.18-.12-.11-.142-.14-.12-.14-.16-.157-.16-.195-.212-.242-.172-.23L8 24.202l-.39-.578-.212-.336-.21-.367-.262-.492-.23-.492-.227-.547-.196-.524-.156-.512-.156-.632-.16-.793-.07-.492-.07-.86-.02-.406v-.578l.039-.578.101-.914.14-.704.196-.773.211-.652.266-.668.21-.477.333-.664.246-.422.176-.281.246-.371.195-.28.21-.282.157-.191.227-.281.21-.25.212-.227.53-.527.142-.121.242-.211.23-.196.246-.195.281-.21.407-.282.383-.242.3-.18.371-.21.473-.243.512-.23.492-.192.703-.23.492-.141.633-.14.633-.106.703-.086Zm0 0" style="stroke:none;fill-rule:nonzero;fill:#002b12;fill-opacity:1"/>
  <path d="m17.86 13.484.07.032.265.492.157.265.246.438.261.476.25.422.227.387.176.3.191.333.266.457.246.422.281.492.3.508.212.37.262.458.21.367.192.336.25.422.226.387.247.441.175.297.282.477.195.332.297.511.246.422.281.508.262.437.25.442.281.473.242.421.301.512.23.402-.039.09-.171.16-.211.157-.266.175-.297.192-.265.16-.368.211-.406.21-.598.282-.793.317-.437.156-.633.195-.422.106-.07-.02-.125-.172-.262-.46-.422-.735-.3-.512-.422-.738-.242-.438-.25-.422-.282-.492-.242-.39-.055-.016-.125.176-.261.457-.141.226-.3.512-.423.738-.261.457-.23.387-.282.492-.262.477-.16.262-.156.191-.086.02-.16-.051-.352-.09-.457-.14-.492-.176-.633-.247-.437-.19-.301-.142-.332-.18-.32-.171-.403-.25-.316-.211-.297-.211-.25-.191-.102-.106.032-.105.265-.457.195-.336.172-.297.266-.477.156-.261.211-.372.266-.453.105-.18.352-.613.246-.422.226-.402.16-.265.231-.387.563-.985.296-.511.141-.242.195-.336.211-.368.243-.441.14-.23.531-.915.192-.332.246-.421.297-.512.195-.332.227-.387.492-.844.18-.316.21-.402.243-.422Zm.035 1.141-.247.016-.105.054-.121.035-.125.192-.07.11-.07.155-.087.141-.125.211-.125.176-.156.23-.14.282-.106.191-.16.23-.14.297-.102.227-.07.125-.16.195-.161.242-.121.196-.035.086v.054h-.035l-.176.317-.106.16-.105.21-.176.298-.07.125-.106.156v.035h-.035l-.12.211-.11.16-.121.281-.07.122-.141.261-.16.23-.157.282-.07.14v.036h-.035l-.07.105-.176.23-.14.227-.017.086h-.039l-.086.211-.105.14-.05.126v.035h-.04l-.07.121-.086.11-.055.1-.101.18-.11.192-.12.211-.071.176-.09.105-.07.106-.157.265-.085.172-.04.09-.12.211-.106.21-.055.09v.032h-.031l-.11.14-.085.18-.086.297-.16.352-.09.336-.032.156v.21l.157.247.125.105.156.086.266.18.191.121.16.09.07.016v.035l.122.05h.05v.04l.18.086.156.07.246.14.563.282.281.105.316.121.247.09.21.05.106.056.176.054.21.07h.247l.14-.07.125-.16.032-.09h.039l.07-.101.07-.07.243-.442.25-.422.21-.37.211-.352.262-.454.176-.3.508-.864.125-.191.07-.176.086-.086h.04l.03.07.11.157.156.14h.035l.035.07.211.298.14.28.055.141.086.18h.036v.05h.035l.035.071.07.106.121.175h.04l.015.07.105.141.106.192.086.16.055.14.07.09.125.243.086.09.156.28.16.302h.035l.016.07.14.156.02.055.07.07h.036l.015.07.02.016v.156l.035.055.195.016.227-.032.125-.039.14-.031.157-.055.21-.054.126-.032.351-.14.297-.11.14-.07.196-.07.227-.102.351-.16.211-.121.106-.07.09-.02v-.035l.085-.016.125-.07.14-.07.052-.055.191-.105.18-.141.05-.02v-.03l.106-.04.106-.07v-.032l.07-.039.12-.14v-.031l.071-.04.07-.07-.03-.086-.055-.015-.016-.07-.055-.09-.086-.09-.039-.102-.086-.21-.14-.25-.106-.212-.07-.12-.035-.071h-.035l-.02-.09-.121-.172-.035-.055h-.035l-.035-.086-.125-.21-.051-.18-.07-.14h-.036l-.054-.212-.121-.191h-.036l-.035-.09-.12-.121h-.04l-.016-.07-.14-.247-.07-.246-.086-.175h-.04l-.03-.086-.02-.055h-.035l-.016-.07-.11-.157-.03-.02-.02-.089-.09-.191-.121-.246-.121-.141-.055-.106-.14-.21-.07-.141-.142-.192-.14-.21h-.035l-.035-.11-.055-.14h-.031l-.04-.086-.05-.106h-.035l-.016-.09-.055-.101h-.035l-.02-.07-.12-.18-.141-.282-.07-.12-.02-.122-.031-.054h-.04l-.03-.07-.141-.196-.09-.121h-.035l-.035-.07-.121-.262-.055-.16-.055-.07-.07-.176h-.031l-.02-.125-.105-.192h-.035l-.036-.09-.054-.101-.016-.055h-.035l-.035-.086-.086-.125-.02-.055h-.035l-.14-.28-.106-.192-.035-.05h-.035l-.035-.09-.211-.282-.125-.191-.121-.23-.09-.122-.07-.195-.087-.125-.054-.121-.121-.141-.121-.05-.16-.196-.106-.227-.07-.09-.106-.035-.02-.035h-.085v-.035Zm0 0" style="stroke:none;fill-rule:nonzero;fill:#00c918;fill-opacity:1"/>
  <path d="m17.86 24.273.085.07.14.302.18.28.141.247.211.351.102.196.25.422.101.191.18.281.102.16.109.211.102.157.09.175.105.176.105.195.106.172.351.563.016.07.18.02.367-.09.527-.14.422-.157.754-.316.422-.192.441-.21.403-.231.32-.192.262-.18.351-.241.16-.125.086-.07.106-.157.02-.125h.03l.25.437-.039.09-.171.16-.211.157-.266.175-.297.192-.265.16-.368.211-.406.21-.598.282-.793.317-.437.156-.633.195-.422.106-.07-.02-.125-.172-.262-.46-.422-.735-.3-.512-.422-.738-.242-.438-.25-.422-.282-.492-.242-.39-.055-.016-.125.176-.261.457-.141.226-.3.512-.423.738-.261.457-.23.387-.282.492-.262.477-.16.262-.156.191-.086.02-.16-.051-.352-.09-.457-.14-.492-.176-.633-.247-.437-.19-.301-.142-.332-.18-.32-.171-.403-.25-.316-.211-.297-.211-.25-.191-.102-.106.032-.105.14-.246.07.035.126.12.335.25.313.212.3.191.403.23.266.141.336.157.242.125.492.21.617.227.477.156.562.18.121.031h.141l.09-.07.172-.262.3-.512.262-.472.512-.863.262-.454.18-.3.507-.864.195-.312Zm0 0" style="stroke:none;fill-rule:nonzero;fill:#002c12;fill-opacity:1"/>
  <path d="M17.191 5.168h1.387l.633.05.477.071.546.11.86.21.687.211.524.192.511.23.387.192.336.175.367.211.578.367.282.196.476.367.246.21.16.126.243.21.23.212.473.476.125.141.156.172.16.195.192.227.14.195.23.316.231.332.227.372.156.261.21.407.18.335.157.333.086.21.195.493.176.527.21.844.177.984.07.598.035.422.02.351v.613l-.04.547-.085.649-.106.633-.09.441-.14.563-.192.613-.14.406-.09.211-.016-.055.156-.422.16-.507.106-.422.055-.196.05-.332v-.16l.036-.14.015-.227.04-.105.03-.442.04-.191-.02-.035.035-.157.016-.18.02-.984-.02-.543-.031-.386-.02-.317-.105-.441-.07-.473-.071-.262-.07-.37-.07-.282-.07-.191-.087-.32-.16-.422-.07-.141-.09-.227-.086-.156-.106-.281-.12-.211-.141-.281-.07-.125-.16-.282-.106-.195-.125-.191-.14-.192-.052-.09-.07-.105-.05-.07v-.036h-.04l-.015-.07-.07-.035-.141-.195-.176-.227-.14-.156-.122-.14-.16-.196-.16-.176V9l-.07-.035V8.93l-.051-.016-.176-.18v-.03l-.07-.04-.211-.21-.055-.032v-.04l-.07-.03-.14-.141-.071-.04-.086-.085-.14-.106v-.035l-.087-.035-.18-.12-.14-.11v-.032l-.086-.039-.07-.05v-.036l-.07-.015v-.04l-.087-.03v-.04l-.109-.03-.172-.11v-.031l-.07-.02-.14-.105-.055-.016v-.04l-.106-.015-.262-.156-.28-.16-.407-.211-.246-.121-.211-.09-.317-.121-.226-.11-.266-.085-.457-.141-.472-.125-.653-.14-.754-.102-.3-.055-.793-.035-1.211.02-.246.03-.332.055-.336.07-.598.106-.492.106-.403.105-.46.121-.227.09-.246.07-.121.051-.266.11-.055.03-.171.055-.07.036-.141.02h-.11l-.07.085h-.031v.035l-.16.035h-.07l-.02.055-.102.05-.055-.019.016-.07-.086.055-.156.086-.07.109-.09.016-.09.054-.156.102-.125.02.07-.07.351-.212.25-.14.383-.211.406-.192.352-.16.457-.176.543-.195.492-.14.563-.141.812-.157.332-.054.387-.032Zm-6.207 2.215.04.015-.231.18h-.035v.031l-.195.141-.086.11-.157.1-.07.09-.195.141-.055.051h-.031v.04l-.055.05H9.88v.035h-.035l-.035.07-.09.106-.051.09-.14.156-.106.125L9.316 9l-.12.14-.09.087-.07.09H9v.035l-.07.07-.14.176-.106.175-.192.227-.07.09-.09.07-.14.23-.07.141-.122.156-.055.086-.156.282-.125.18-.105.21-.07.121-.09.141-.122.105-.05.176-.16.246-.07.227-.036.14-.086.32-.09.212-.035.101-.055.211h-.03l.015.055h-.035l-.036.14-.054.106v.09l-.016.016-.035.156-.09.406-.05.106-.036.175-.035.246v.282l-.035.23-.055.156v.438l-.016.25-.015.703.016.79.054.456.051.317.035.406.086.523.055.266.035.105v.07h.035l.035.141.121.371.07.192.126.316.035.106.09.191.086.23.14.262.125.301.07.121.102.195.14.211.09.157v.039h.036l.125.191.28.387.052.086.175.25.141.191.055.05v.04h.031l.125.191.07.07.106.122v.039l.07.031.035.09.07.07v.035l.087.036.07.09.07.03h.09l.07-.015.02.016.031-.086.07-.035h.18l.086-.07.086-.106.14-.106.11-.14.172-.371.195-.332.106-.176.07-.125.105-.121h.036v-.051l.09-.04-.02.09-.23.403-.282.477-.281.492-.262.492-.21.336-.106.14-.086-.039-.18-.12-.156-.192-.176-.195-.16-.196-.21-.226-.227-.297-.211-.3-.176-.247-.16-.246-.211-.332-.262-.477-.23-.437-.122-.281-.09-.196-.171-.437-.125-.336-.086-.281-.16-.528-.122-.512-.109-.542-.101-.684-.055-.422-.016-.39v-1.016l.016-.406.07-.618.106-.632.16-.735.101-.422.196-.617.195-.492.191-.438.332-.687.211-.387.211-.351.32-.473.212-.3.242-.317.195-.246.156-.176.16-.195.473-.473.14-.121.282-.266.195-.156.211-.18.477-.367Zm0 0" style="stroke:none;fill-rule:nonzero;fill:#00c918;fill-opacity:1"/>
  <path d="m17.86 13.484.07.032.265.492.157.265.246.438.261.476.25.422.227.387.176.3.191.333.266.457.246.422.281.492.3.508.212.37.262.458.21.367.192.336.25.422.226.387.247.441.175.297.282.477.195.332.297.511.246.422.281.508.262.437.25.442.281.473.242.421.266.442-.016.16-.07.102-.11.125-.171.125-.266.19-.266.177-.332.21-.37.212-.333.175-.492.23-.527.227-.563.227-.367.125-.672.176-.21.02-.071-.04-.102-.191-.125-.192-.175-.28-.16-.267-.122-.226-.09-.14-.07-.141-.14-.23-.086-.16-.227-.368-.23-.406-.192-.313-.11-.195-.28-.492-.192-.317.02-.05.086.14v.031h.035l.105.196.157.28.09.142v.035h.035l.105.21.121.192.09.18.02.05.05.02v.05h.035l.07.106.071.176.105.191.051.055v.035h.04l.12.211.192.352.125.246.07.105v.07h.035l.106.176.07.125.035.086h.035l.055.086v.055h.031l.125.176.106.09h.191l.23-.04.176-.05.266-.051.227-.07.175-.07.301-.11.192-.086.3-.105.192-.09.262-.121.23-.106.332-.156.195-.125.246-.125.192-.121.422-.281.25-.176.21-.211.016-.176-.054-.191-.086-.11-.106-.21-.176-.282-.086-.172-.14-.18-.09-.21-.121-.172-.09-.23-.176-.302-.105-.21-.16-.192-.051-.09v-.05h-.035l-.055-.122-.086-.125-.086-.21-.18-.297-.14-.25v-.032h-.031l-.11-.18-.101-.226-.11-.195v-.031h-.031l-.125-.23-.125-.161-.086-.172-.156-.266v-.035h-.04l-.07-.14-.101-.176-.07-.14-.11-.157-.156-.266-.07-.14-.036-.055v-.05h-.035l-.054-.122-.157-.25-.07-.156-.156-.246-.11-.176-.191-.281-.14-.297L20.39 18l-.125-.156-.086-.16-.176-.332-.09-.16-.191-.282-.106-.176-.14-.226-.106-.211-.23-.406-.102-.211-.07-.086-.055-.09-.105-.14-.282-.563-.12-.176-.071-.14-.16-.176-.14-.262-.071-.09-.121-.02-.07.055h-.04l-.03.106-.09.16-.052.05-.019.036h-.035l-.035.086-.121.16h-.04l-.015.07-.176.281-.105.192-.157.21-.195.352-.07.11h-.035l-.036.156-.105.195-.176.332-.14.23-.125.212-.122.14-.05.051-.11.281-.191.352-.246.351-.317.633-.12.176-.141.281-.07.035-.04.07-.101.141-.14.282-.18.37-.122.173-.105.195-.195.316-.102.192-.125.265-.125.196-.281.422-.051.05-.035-.02.265-.452.493-.864.296-.511.141-.242.195-.336.211-.368.243-.441.14-.23.531-.915.192-.332.246-.421.297-.512.195-.332.227-.387.492-.844.18-.316.21-.402.243-.422Zm0 0" style="stroke:none;fill-rule:nonzero;fill:#00ac14;fill-opacity:1"/>
  <path d="M17.191 5.168h1.387l.633.05.477.071.546.11.86.21.687.211.524.192.511.23.387.192.336.175.367.211.578.367.282.196.476.367.246.21.16.126.243.21.23.212.473.476.125.141.156.172.16.195.192.227.14.195.23.316.231.332.227.372.156.261.21.407.18.335.157.333.086.21.195.493.176.527.21.844.177.984.07.598.035.422.02.351v.613l-.04.547-.085.649-.106.633-.09.441-.14.563-.192.613-.14.406-.09.211-.016-.055.156-.422.16-.507.106-.422.055-.196h.03l.02-.156.106-.562.086-.578.055-.422.035-.461v-.895l-.051-.562-.02-.352-.07-.582-.05-.242-.04-.266-.086-.422-.14-.562-.055-.156-.086-.336-.07-.156-.055-.25-.121-.227-.07-.227-.16-.3-.282-.563-.156-.281-.14-.23-.126-.212-.14-.21-.172-.243-.211-.28-.14-.196-.18-.227-.211-.25-.211-.226L26.473 9l-.176-.176V8.79l-.07-.035-.266-.262-.031-.02v-.034l-.07-.036-.126-.12-.226-.18V8.07l-.07-.039L25.383 8v-.04l-.106-.05v-.035l-.07-.035-.21-.16v-.032l-.09-.039-.192-.14-.281-.211-.23-.14-.157-.102-.387-.25-.191-.102-.32-.18-.333-.156-.175-.086-.508-.21-.195-.071-.247-.11-.28-.085-.442-.125-.453-.102-.371-.09-.739-.12-.648-.071-.813-.04h-.754l-.613.04h-.21v-.02l.507-.05Zm0 0" style="stroke:none;fill-rule:nonzero;fill:#00ab14;fill-opacity:1"/>
  <path d="m10.984 7.383.04.015-.231.18h-.035v.031l-.195.141-.086.11-.157.1-.07.09-.195.141-.055.051h-.031v.04l-.055.05H9.88v.035h-.035l-.035.07-.09.106-.051.09-.14.156-.106.125L9.316 9l-.12.14-.09.087-.07.09H9v.035l-.07.07-.14.176-.106.175-.192.227-.07.09-.09.07-.14.23-.07.141-.122.156-.055.086-.156.282-.125.18-.105.21-.07.121-.09.141-.122.105-.05.176-.16.246-.07.227-.036.14-.086.32-.09.212-.035.101-.055.211h-.03l.015.055h-.035l-.036.14-.054.106v.09l-.016.016-.035.156-.09.406-.05.106-.036.02-.125.632-.05.332-.051.598-.02.492v.668l.02.668.015.21v.196h-.015l-.055-.422-.016-.39v-1.016l.016-.406.07-.618.106-.632.16-.735.101-.422.196-.617.195-.492.191-.438.332-.687.211-.387.211-.351.32-.473.212-.3.242-.317.195-.246.156-.176.16-.195.473-.473.14-.121.282-.266.195-.156.211-.18.477-.367Zm0 0" style="stroke:none;fill-rule:nonzero;fill:#00c518;fill-opacity:1"/>
  <path d="m11.445 24.625.016.055-.086.175-.11.16-.1.141-.126.297-.125.246-.05.121-.09.18-.051.086v.14l.05.126.04.015v.035l.07.035.14.125.352.227.332.211.191.125.563.281.406.211.406.172.262.11.16.07.211.07.262.102.402.125.282.086.09.039.105.015h.226l.11-.054h.031l.04-.07.03-.016-.03.086-.126.14-.035.02h-.14l-.458-.14-.617-.192-.613-.23-.457-.192-.352-.16-.297-.16-.28-.141-.352-.192-.282-.175-.422-.282-.37-.28-.141-.141.035-.086.21-.371.157-.262.18-.32.261-.454.051-.09ZM6.61 20.602l.035.035.09.261.19.493.177.406.105.21.09.196.156.297.106.21.09.157.19.336v.035h.036l.125.176.14.211.157.227.14.16.157.21.02.071h.034l.07.105v.036h.036l.16.191.07.055v.035h.032l.125.16.035.016v.035l.07.035.191.156.141.09.09.02.05-.02.04.02-.02.07-.105.14-.086-.039-.18-.12-.156-.192-.176-.195-.16-.196-.21-.226-.227-.297-.211-.3-.176-.247-.16-.246-.211-.332-.262-.477-.23-.437-.122-.281-.09-.196-.171-.437-.125-.336-.07-.211Zm0 0" style="stroke:none;fill-rule:nonzero;fill:#00ab14;fill-opacity:1"/>
  <path d="M6.96 12.46h.017v.11l-.102.352-.09.21-.035.102-.055.211h-.03l.015.055h-.035l-.036.14-.054.106v.09l-.016.016-.035.156-.09.406-.05.106-.036.02-.125.632-.05.332-.051.598-.02.492v.668l.02.668.015.21v.196h-.015l-.055-.422-.016-.39v-1.016l.016-.406.07-.618.106-.632.16-.735.101-.422.196-.617.195-.492.031-.086Zm0 0" style="stroke:none;fill-rule:nonzero;fill:#00c418;fill-opacity:1"/>
  <path d="M26.984 24.434v.05l-.195.23-.156.192-.195.196-.125.14-.192.195-.191-.25-.25-.421-.086-.141.035-.07.16.054.102.086.039.09.086.035.054.07.157.016.054.04.016.085.105-.015v-.04l.106-.085h.055l.015-.036.07-.02.036-.07.09-.1h.03l.04-.071Zm0 0" style="stroke:none;fill-rule:nonzero;fill:#00ca19;fill-opacity:1"/>
  <path d="m24.223 20.531.05.016-.07.18-.05.015-.02.14h-.031l-.04.087-.03.02-.071.14-.02.121-.035.125.106.281v.106l.07.05-.02.09h-.03l-.212-.37-.09-.192v-.106l.141-.125.16-.242Zm0 0" style="stroke:none;fill-rule:nonzero;fill:#02cc19;fill-opacity:1"/>
  <path d="M6.313 14.43h.015l-.016.18-.125.663-.054.407-.031.422-.02.492v.668l.02.668.015.21v.196h-.015l-.055-.422-.016-.39v-1.016l.016-.406.07-.618.106-.632Zm0 0" style="stroke:none;fill-rule:nonzero;fill:#00ab14;fill-opacity:1"/>
  <path d="m21.094 10.46.246.017.21.085.212.16.05.051v.04l.07.03.055.071v.04l-.085-.04-.442-.262-.316-.175Zm0 0" style="stroke:none;fill-rule:nonzero;fill:#01cb19;fill-opacity:1"/>
  <path d="m11.375 20.375.05.016.282.492.14.21.09.126-.054.05-.07-.019-.07-.121-.071-.211-.055-.05-.05-.09-.09-.16v-.032h-.032l-.07-.16Zm0 0" style="stroke:none;fill-rule:nonzero;fill:#02cc19;fill-opacity:1"/>
  <path d="M25.117 16.54h.04l.07.16.015.3-.035.242-.07.055-.02-.457Zm0 0" style="stroke:none;fill-rule:nonzero;fill:#01cb19;fill-opacity:1"/>
  <path d="m11.969 12.621.039.035-.211.317-.18.28-.05.052-.02-.032.09-.23.09-.121.085-.16.086-.07.04-.036Zm0 0" style="stroke:none;fill-rule:nonzero;fill:#02cc19;fill-opacity:1"/>
  <path d="M12.305 23.078h.035l-.02.07-.101.211-.07.16-.141.247-.18.246-.07.05.039-.085.191-.336.211-.368Zm0 0" style="stroke:none;fill-rule:nonzero;fill:#00af14;fill-opacity:1"/>
  <path d="m29.336 19.773.02.04-.141.507-.246.758-.125.297-.016-.055.156-.422.16-.507.106-.422.016-.055h.039l.015-.121Zm0 0" style="stroke:none;fill-rule:nonzero;fill:#00bd16;fill-opacity:1"/>
  <path d="m22.234 11.125.125.02v.035h.055v.035h.031l.07.09.09.086v.035h.036l.086.105.109.086-.04.04-.19-.18-.192-.157-.18-.14Zm0 0" style="stroke:none;fill-rule:nonzero;fill:#02cc19;fill-opacity:1"/>
  <path d="m10.984 7.383.04.015-.231.18h-.035v.031l-.195.141-.086.11-.157.1-.07.09-.195.141-.106.036.09-.086.172-.16.25-.192.281-.23Zm0 0" style="stroke:none;fill-rule:nonzero;fill:#00bd16;fill-opacity:1"/>
  <path d="m12.27 6.574.035.02-.086.07-.211.102-.07.109-.09.016-.09.054-.156.102-.125.02.07-.07.351-.212.25-.14Zm0 0" style="stroke:none;fill-rule:nonzero;fill:#01c217;fill-opacity:1"/>
  <path d="m15.664 27.95.016.034-.176.282-.14.125-.09.03h-.227l-.14-.03-.055-.02v-.035l.125.016.035.02h.246l.14-.071.106-.14.05-.09h.04l.015-.087Zm0 0" style="stroke:none;fill-rule:nonzero;fill:#00ca19;fill-opacity:1"/>
  <path d="M26.633 24.855v.051l-.195.196-.125.14-.192.195-.07-.09.035-.07.14-.02.07-.085h.036l.035-.07.055-.016.015-.055.141-.125Zm0 0" style="stroke:none;fill-rule:nonzero;fill:#00ab14;fill-opacity:1"/>
  <path d="m11.445 24.625.016.055-.086.175-.11.16-.1.141-.071.157-.055.015.035-.101.23-.407.102-.175Zm0 0" style="stroke:none;fill-rule:nonzero;fill:#00b014;fill-opacity:1"/>
  <path d="m24.383 13.766.101.05.09.141.035.09.016.191-.031.02-.211-.461Zm0 0" style="stroke:none;fill-rule:nonzero;fill:#01cb19;fill-opacity:1"/>
  <path d="m23.168 12.008.09.015.101.07v.036h.04l.03.09.071.031.055.11-.016.07-.09-.09-.16-.176-.121-.14Zm0 0" style="stroke:none;fill-rule:nonzero;fill:#02cc19;fill-opacity:1"/>
  <path d="m17.86 13.484.07.032.07.125v.035h-.14l-.087.05h-.039l.02-.085Zm0 0" style="stroke:none;fill-rule:nonzero;fill:#003812;fill-opacity:1"/>
  <path d="m11.426 13.465.035.07-.156.3-.07.142h-.02l.02-.141.03-.11.141-.242Zm0 0" style="stroke:none;fill-rule:nonzero;fill:#02cb19;fill-opacity:1"/>
  <path d="M7.227 11.813h.03l-.03.175-.16.246-.07.227-.071.039.05-.16Zm0 0" style="stroke:none;fill-rule:nonzero;fill:#00bf17;fill-opacity:1"/>
  <path d="M16.82 15.313h.04l-.04.101-.156.281-.07.11h-.035v.05l-.051.02.031-.09.266-.457Zm0 0" style="stroke:none;fill-rule:nonzero;fill:#00b014;fill-opacity:1"/>
  <path d="m9.578 8.543.04.02L9.175 9l-.02.035h-.031l-.04.07-.12.106L9 9.14l.21-.227Zm0 0" style="stroke:none;fill-rule:nonzero;fill:#00ab14;fill-opacity:1"/>
  <path d="m29.336 19.773.02.04-.141.507h-.02v-.156l.07-.25h.04l.015-.121Zm0 0" style="stroke:none;fill-rule:nonzero;fill:#00b515;fill-opacity:1"/>
  <path d="m17.86 24.223.054.02.086.14.016.101-.051-.07-.07-.102h-.051l-.11.157-.015-.035.105-.176Zm0 0" style="stroke:none;fill-rule:nonzero;fill:#00bb16;fill-opacity:1"/>
  <path d="M26.984 24.434v.05l-.195.23-.105.122-.02-.05.11-.122h.03l.04-.07Zm0 0" style="stroke:none;fill-rule:nonzero;fill:#00b916;fill-opacity:1"/>
  <path d="m15.664 27.95.016.034-.176.282-.035-.055.086-.14h.039l.015-.087Zm0 0" style="stroke:none;fill-rule:nonzero;fill:#00bd17;fill-opacity:1"/>
  <path d="m10.21 7.98.04.02-.16.172-.106.055-.035-.016.176-.16Zm0 0" style="stroke:none;fill-rule:nonzero;fill:#00b916;fill-opacity:1"/>
  <path d="m24.102 13.219.085.086.055.07v.11l-.07-.07-.07-.126Zm0 0" style="stroke:none;fill-rule:nonzero;fill:#03cd19;fill-opacity:1"/>
  <path d="m7.066 12.148.02.051-.09.262-.07.039.05-.16Zm0 0" style="stroke:none;fill-rule:nonzero;fill:#00bb16;fill-opacity:1"/>
  <path d="m11.742 21.727.016.07-.086.156h-.035l.02-.101.03-.07h.04Zm0 0" style="stroke:none;fill-rule:nonzero;fill:#06cf19;fill-opacity:1"/>
  <path d="M11.516 22.133h.03l-.03.101-.07.07-.02-.085Zm0 0" style="stroke:none;fill-rule:nonzero;fill:#02cb19;fill-opacity:1"/>
  <path d="M12.305 23.078h.035l-.02.07-.086.16-.054.036.039-.106Zm0 0" style="stroke:none;fill-rule:nonzero;fill:#00b315;fill-opacity:1"/>
  <path d="M16.82 15.313h.04l-.04.101-.05.09-.07.035.034-.086ZM12.656 22.5l.035.016-.105.18-.055.03.04-.085Zm0 0" style="stroke:none;fill-rule:nonzero;fill:#00b215;fill-opacity:1"/>
</svg>
