<svg xmlns="http://www.w3.org/2000/svg" fill="none" viewBox="0 0 30 30">
  <path fill="url(#etherlink-dark_svg__a)" d="M15 1C7.268 1 1 7.269 1 15c0 7.732 6.269 14 14 14 7.732 0 14-6.268 14-14 0-7.731-6.268-14-14-14Zm0 25.522C8.637 26.522 3.478 21.363 3.478 15S8.637 3.478 15 3.478 26.522 8.637 26.522 15 21.363 26.522 15 26.522Z"/>
  <path fill="url(#etherlink-dark_svg__b)" d="M14.923 7.301c-4.236.042-7.67 3.552-7.622 7.788a7.653 7.653 0 0 0 .665 3.045c.062.14.247.17.353.06l1.697-1.751a.48.48 0 0 0 .124-.431 4.963 4.963 0 0 1 5.683-5.906.55.55 0 0 0 .488-.158L18 8.207a.201.201 0 0 0-.067-.326 7.687 7.687 0 0 0-3.01-.578V7.3Z"/>
  <path fill="url(#etherlink-dark_svg__c)" d="M15.076 22.708c4.236-.041 7.67-3.551 7.622-7.787a7.654 7.654 0 0 0-.664-3.045.216.216 0 0 0-.353-.061l-1.698 1.752a.48.48 0 0 0-.124.431 4.963 4.963 0 0 1-5.683 5.906.55.55 0 0 0-.488.157l-1.689 1.742a.201.201 0 0 0 .068.326 7.688 7.688 0 0 0 3.01.578v.001Z"/>
  <path fill="url(#etherlink-dark_svg__d)" d="M11.034 16.522 7.8 19.755a1.68 1.68 0 0 0 2.376 2.376l3.233-3.233a1.68 1.68 0 1 0-2.376-2.376Z"/>
  <path fill="url(#etherlink-dark_svg__e)" d="m19.753 7.823-3.233 3.233a1.68 1.68 0 1 0 2.376 2.377l3.233-3.234a1.68 1.68 0 0 0-2.376-2.376Z"/>
  <defs>
    <linearGradient id="etherlink-dark_svg__a" x1="1" x2="40.087" y1="15" y2="15" gradientUnits="userSpaceOnUse">
      <stop stop-color="#38FF9C"/>
      <stop offset="1" stop-color="#171717"/>
    </linearGradient>
    <linearGradient id="etherlink-dark_svg__b" x1="7.301" x2="22.005" y1="12.78" y2="12.78" gradientUnits="userSpaceOnUse">
      <stop stop-color="#38FF9C"/>
      <stop offset="1" stop-color="#171717"/>
    </linearGradient>
    <linearGradient id="etherlink-dark_svg__c" x1="11.943" x2="26.567" y1="17.23" y2="17.23" gradientUnits="userSpaceOnUse">
      <stop stop-color="#38FF9C"/>
      <stop offset="1" stop-color="#171717"/>
    </linearGradient>
    <linearGradient id="etherlink-dark_svg__d" x1="7.308" x2="18.399" y1="19.327" y2="19.327" gradientUnits="userSpaceOnUse">
      <stop stop-color="#38FF9C"/>
      <stop offset="1" stop-color="#171717"/>
    </linearGradient>
    <linearGradient id="etherlink-dark_svg__e" x1="16.027" x2="26.26" y1="10.628" y2="10.628" gradientUnits="userSpaceOnUse">
      <stop stop-color="#38FF9C"/>
      <stop offset="1" stop-color="#171717"/>
    </linearGradient>
  </defs>
</svg>
